{"glyphs":{"0":{"ha":907,"x_min":0,"x_max":0,"o":"m 40 524 b 454 -17 40 211 224 -17 b 867 524 683 -17 867 211 b 454 1064 867 836 683 1064 b 40 524 224 1064 40 836 z m 261 524 b 454 857 261 714 336 857 b 646 524 571 857 646 714 b 454 190 646 333 571 190 b 261 524 336 190 261 333 z "},"1":{"ha":538,"x_min":0,"x_max":0,"o":"m 443 1047 l 117 1047 l 10 861 l 221 861 l 221 0 l 443 0 z "},"2":{"ha":761,"x_min":0,"x_max":0,"o":"m 229 708 b 374 857 232 789 285 857 b 504 718 457 857 504 796 b 367 461 504 633 443 557 l -7 0 l 747 0 l 747 186 l 394 186 l 528 349 b 726 732 614 454 726 588 b 376 1064 726 928 594 1064 b 3 708 163 1064 14 904 z "},"3":{"ha":775,"x_min":0,"x_max":0,"o":"m 378 464 b 540 319 469 464 540 413 b 382 167 540 229 472 167 b 217 343 279 167 217 244 l -1 343 b 382 -17 0 133 151 -17 b 751 310 600 -17 751 126 b 599 556 751 426 689 508 b 713 765 657 594 713 669 b 390 1064 713 942 586 1064 b 44 732 181 1064 51 911 l 253 732 b 385 874 254 815 304 874 b 506 754 457 874 506 822 b 378 632 506 678 444 632 l 328 632 l 328 464 z "},"4":{"ha":888,"x_min":0,"x_max":0,"o":"m 710 0 l 710 250 l 869 250 l 869 428 l 710 428 l 710 1047 l 483 1047 l 14 419 l 14 250 l 497 250 l 497 0 z m 225 428 l 497 794 l 497 428 z "},"5":{"ha":738,"x_min":0,"x_max":0,"o":"m 306 179 b 39 347 183 179 86 263 l -14 129 b 319 -17 40 51 160 -17 b 722 364 547 -17 722 157 b 376 710 722 551 592 710 b 317 706 357 710 336 708 l 354 861 l 678 861 l 678 1047 l 204 1047 l 74 481 b 286 542 147 521 218 542 b 508 358 419 542 508 464 b 306 179 508 243 408 179 z "},"6":{"ha":822,"x_min":0,"x_max":0,"o":"m 794 361 b 447 722 794 561 647 714 l 696 1047 l 444 1047 l 158 668 b 29 361 68 547 29 464 b 413 -17 29 149 199 -17 b 794 361 629 -17 794 149 z m 413 542 b 590 361 511 542 590 463 b 413 179 590 260 511 179 b 235 361 314 179 235 260 b 413 542 235 463 314 542 z "},"7":{"ha":850,"x_min":0,"x_max":0,"o":"m 860 1047 l 21 1047 l 21 861 l 525 861 l 42 0 l 289 0 z "},"8":{"ha":783,"x_min":0,"x_max":0,"o":"m 392 1064 b 72 776 221 1064 72 946 b 190 557 72 676 125 599 b 18 301 111 522 18 431 b 392 -17 18 115 185 -17 b 765 301 599 -17 765 115 b 593 557 765 431 672 522 b 711 776 658 599 711 676 b 392 1064 711 946 563 1064 z m 392 651 b 269 772 324 651 269 701 b 392 894 269 843 324 894 b 514 772 460 894 514 843 b 392 651 514 701 460 651 z m 392 165 b 238 315 306 165 238 228 b 392 465 238 403 306 465 b 546 315 478 465 546 403 b 392 165 546 228 478 165 z "},"9":{"ha":822,"x_min":0,"x_max":0,"o":"m 28 686 b 375 325 28 486 175 333 l 126 0 l 378 0 l 664 379 b 793 686 754 500 793 583 b 410 1064 793 899 624 1064 b 28 686 193 1064 28 899 z m 410 506 b 232 686 311 506 232 585 b 410 868 232 788 311 868 b 588 686 508 868 588 788 b 410 506 588 585 508 506 z "}," ":{"ha":308,"x_min":0,"x_max":0,"o":""}," ":{"ha":308,"x_min":0,"x_max":0,"o":""}," ":{"ha":110,"x_min":0,"x_max":0,"o":""},"A":{"ha":1067,"x_min":0,"x_max":0,"o":"m 840 0 l 1074 0 l 628 1047 l 439 1047 l -7 0 l 221 0 l 311 219 l 750 219 z m 531 753 l 674 404 l 388 404 z "},"B":{"ha":858,"x_min":0,"x_max":0,"o":"m 636 554 b 768 767 703 589 768 660 b 415 1047 768 935 642 1047 l 97 1047 l 97 0 l 465 0 b 832 301 699 0 832 122 b 636 554 832 425 751 521 z m 317 864 l 403 864 b 550 738 490 864 550 819 b 403 611 550 656 490 611 l 317 611 z m 317 446 l 451 446 b 607 315 550 446 607 393 b 451 183 607 236 550 183 l 317 183 z "},"C":{"ha":893,"x_min":0,"x_max":0,"o":"m 263 524 b 590 853 263 711 403 853 b 839 756 693 853 781 813 l 839 1006 b 586 1064 764 1043 676 1064 b 39 524 283 1064 39 821 b 586 -17 39 226 283 -17 b 839 42 676 -17 764 3 l 839 292 b 590 194 781 235 693 194 b 263 524 403 194 263 336 z "},"D":{"ha":1019,"x_min":0,"x_max":0,"o":"m 97 1047 l 97 0 l 428 0 b 981 524 738 0 981 221 b 428 1047 981 826 738 1047 z m 756 524 b 414 186 756 332 617 186 l 321 186 l 321 861 l 415 861 b 756 524 617 861 756 715 z "},"E":{"ha":786,"x_min":0,"x_max":0,"o":"m 97 0 l 719 0 l 719 186 l 317 186 l 317 447 l 708 447 l 708 633 l 317 633 l 317 861 l 718 861 l 718 1047 l 97 1047 z "},"F":{"ha":749,"x_min":0,"x_max":0,"o":"m 97 0 l 317 0 l 317 439 l 686 439 l 686 625 l 317 625 l 317 861 l 696 861 l 696 1047 l 97 1047 z "},"G":{"ha":1117,"x_min":0,"x_max":0,"o":"m 1085 565 l 600 565 l 600 379 l 851 379 b 583 189 813 251 714 189 b 263 524 404 189 263 338 b 579 853 263 710 404 853 b 842 689 693 853 789 788 l 1028 808 b 579 1064 936 965 772 1064 b 39 524 281 1064 39 821 b 579 -17 39 226 281 -17 b 1085 565 878 -17 1111 201 z "},"H":{"ha":1064,"x_min":0,"x_max":0,"o":"m 744 0 l 967 0 l 967 1047 l 744 1047 l 744 633 l 321 633 l 321 1047 l 97 1047 l 97 0 l 321 0 l 321 447 l 744 447 z "},"I":{"ha":418,"x_min":0,"x_max":0,"o":"m 321 1047 l 97 1047 l 97 0 l 321 0 z "},"J":{"ha":710,"x_min":0,"x_max":0,"o":"m 626 338 l 626 1047 l 403 1047 l 403 344 b 271 186 403 243 357 186 b 142 274 213 186 171 219 l -18 133 b 272 -17 39 44 153 -17 b 626 338 478 -17 626 122 z "},"K":{"ha":990,"x_min":0,"x_max":0,"o":"m 321 1047 l 97 1047 l 97 0 l 321 0 l 321 361 l 396 446 l 738 0 l 1008 0 l 549 603 l 949 1047 l 682 1047 l 321 631 z "},"L":{"ha":749,"x_min":0,"x_max":0,"o":"m 97 0 l 710 0 l 710 186 l 321 186 l 321 1047 l 97 1047 z "},"M":{"ha":1375,"x_min":0,"x_max":0,"o":"m 613 0 l 758 0 l 990 683 l 1128 0 l 1350 0 l 1133 1047 l 918 1047 l 689 363 l 460 1047 l 242 1047 l 25 0 l 243 0 l 381 683 z "},"N":{"ha":1135,"x_min":0,"x_max":0,"o":"m 97 1047 l 97 0 l 313 0 l 313 678 l 871 0 l 1038 0 l 1038 1047 l 822 1047 l 822 376 l 274 1047 z "},"O":{"ha":1160,"x_min":0,"x_max":0,"o":"m 39 524 b 579 -17 39 226 281 -17 b 1121 524 881 -17 1121 226 b 579 1064 1121 821 881 1064 b 39 524 281 1064 39 821 z m 896 524 b 579 192 896 332 756 192 b 263 524 404 192 263 332 b 579 856 263 715 404 856 b 896 524 756 856 896 715 z "},"P":{"ha":828,"x_min":0,"x_max":0,"o":"m 321 388 l 417 388 b 803 717 643 388 803 511 b 417 1047 803 924 643 1047 l 97 1047 l 97 0 l 321 0 z m 321 864 l 413 864 b 582 717 511 864 582 814 b 413 571 582 619 511 571 l 321 571 z "},"Q":{"ha":1160,"x_min":0,"x_max":0,"o":"m 39 524 b 579 -17 39 226 281 -17 b 840 51 672 -17 761 8 l 888 0 l 1143 0 l 986 171 b 1121 524 1069 265 1121 389 b 579 1064 1121 821 881 1064 b 39 524 281 1064 39 821 z m 896 524 b 842 328 896 447 876 381 l 724 457 l 468 457 l 696 210 b 579 189 660 196 621 189 b 263 524 404 189 263 332 b 579 856 263 715 404 856 b 896 524 756 856 896 715 z "},"R":{"ha":892,"x_min":0,"x_max":0,"o":"m 318 400 l 338 400 l 636 0 l 903 0 l 572 426 b 803 724 711 472 803 576 b 407 1047 803 929 638 1047 l 97 1047 l 97 0 l 318 0 z m 318 864 l 403 864 b 578 718 504 864 578 814 b 403 569 578 619 504 569 l 318 569 z "},"S":{"ha":785,"x_min":0,"x_max":0,"o":"m 765 325 b 269 763 765 703 269 579 b 390 875 269 832 322 875 b 529 764 464 875 510 824 l 735 840 b 399 1064 689 976 563 1064 b 51 747 190 1064 51 918 b 543 314 51 381 543 514 b 388 174 543 228 476 174 b 200 339 293 174 224 239 l -8 272 b 381 -17 31 97 186 -17 b 765 325 593 -17 765 128 z "},"T":{"ha":851,"x_min":0,"x_max":0,"o":"m 813 861 l 813 1047 l 39 1047 l 39 861 l 314 861 l 314 0 l 538 0 l 538 861 z "},"U":{"ha":1007,"x_min":0,"x_max":0,"o":"m 503 183 b 307 415 385 183 307 261 l 307 1047 l 83 1047 l 83 414 b 503 -17 83 138 267 -17 b 924 414 740 -17 924 138 l 924 1047 l 700 1047 l 700 415 b 503 183 700 261 622 183 z "},"V":{"ha":1039,"x_min":0,"x_max":0,"o":"m 522 322 l 239 1047 l -7 1047 l 429 0 l 610 0 l 1046 1047 l 807 1047 z "},"W":{"ha":1449,"x_min":0,"x_max":0,"o":"m 1457 1047 l 1224 1047 l 999 356 l 804 1047 l 649 1047 l 454 356 l 228 1047 l -7 1047 l 349 0 l 532 0 l 725 683 l 917 0 l 1101 0 z "},"X":{"ha":979,"x_min":0,"x_max":0,"o":"m 25 1047 l 364 549 l -7 0 l 238 0 l 488 375 l 735 0 l 986 0 l 613 553 l 947 1047 l 703 1047 l 490 725 l 278 1047 z "},"Y":{"ha":946,"x_min":0,"x_max":0,"o":"m 583 0 l 583 449 l 963 1047 l 713 1047 l 474 660 l 235 1047 l -17 1047 l 361 449 l 361 0 z "},"Z":{"ha":910,"x_min":0,"x_max":0,"o":"m 518 861 l 18 0 l 863 0 l 863 186 l 371 186 l 871 1047 l 58 1047 l 58 861 z "},"Á":{"ha":1067,"x_min":0,"x_max":0,"o":"m 403 1179 l 478 1090 l 829 1290 l 694 1449 z m 840 0 l 1074 0 l 628 1047 l 439 1047 l -7 0 l 221 0 l 311 219 l 750 219 z m 531 753 l 674 404 l 388 404 z "},"Ă":{"ha":1067,"x_min":0,"x_max":0,"o":"m 533 1104 b 797 1356 675 1104 788 1211 l 644 1379 b 533 1261 635 1303 589 1261 b 424 1379 479 1261 433 1303 l 269 1356 b 533 1104 279 1211 393 1104 z m 840 0 l 1074 0 l 628 1047 l 439 1047 l -7 0 l 221 0 l 311 219 l 750 219 z m 531 753 l 674 404 l 388 404 z "},"Â":{"ha":1067,"x_min":0,"x_max":0,"o":"m 533 1446 l 247 1183 l 344 1100 l 533 1225 l 724 1100 l 819 1183 z m 840 0 l 1074 0 l 628 1047 l 439 1047 l -7 0 l 221 0 l 311 219 l 750 219 z m 531 753 l 674 404 l 388 404 z "},"Ä":{"ha":1067,"x_min":0,"x_max":0,"o":"m 365 1131 b 485 1251 431 1131 485 1183 b 365 1374 485 1319 431 1374 b 243 1251 299 1374 243 1319 b 365 1131 243 1183 299 1131 z m 703 1131 b 825 1251 769 1131 825 1183 b 703 1374 825 1319 769 1374 b 582 1251 638 1374 582 1319 b 703 1131 582 1183 638 1131 z m 840 0 l 1074 0 l 628 1047 l 439 1047 l -7 0 l 221 0 l 311 219 l 750 219 z m 531 753 l 674 404 l 388 404 z "},"À":{"ha":1067,"x_min":0,"x_max":0,"o":"m 696 1179 l 404 1449 l 269 1290 l 621 1090 z m 840 0 l 1074 0 l 628 1047 l 439 1047 l -7 0 l 221 0 l 311 219 l 750 219 z m 531 753 l 674 404 l 388 404 z "},"Ā":{"ha":1067,"x_min":0,"x_max":0,"o":"m 293 1144 l 775 1144 l 775 1310 l 293 1310 z m 840 0 l 1074 0 l 628 1047 l 439 1047 l -7 0 l 221 0 l 311 219 l 750 219 z m 531 753 l 674 404 l 388 404 z "},"Ą":{"ha":1067,"x_min":0,"x_max":0,"o":"m 1067 -276 l 993 -165 b 919 -211 969 -194 946 -211 b 871 -162 892 -211 871 -193 b 1000 0 871 -122 907 -78 l 1074 0 l 628 1047 l 439 1047 l -7 0 l 221 0 l 311 219 l 750 219 l 838 6 b 710 -211 760 -64 710 -133 b 882 -364 710 -311 790 -364 b 1067 -276 954 -364 1019 -333 z m 531 753 l 674 404 l 388 404 z "},"Å":{"ha":1067,"x_min":0,"x_max":0,"o":"m 750 1089 b 539 1294 750 1204 658 1294 b 328 1089 419 1294 328 1204 b 393 940 328 1031 353 978 l -7 0 l 221 0 l 311 219 l 750 219 l 840 0 l 1074 0 l 676 933 b 750 1089 722 971 750 1026 z m 449 1089 b 539 1179 449 1139 489 1179 b 628 1089 589 1179 628 1139 b 539 1000 628 1040 589 1000 b 449 1089 489 1000 449 1040 z m 531 753 l 674 404 l 388 404 z "},"Ã":{"ha":1067,"x_min":0,"x_max":0,"o":"m 629 1304 b 414 1375 567 1304 508 1375 b 256 1151 313 1375 258 1274 l 386 1143 b 438 1214 388 1188 408 1214 b 654 1142 504 1214 560 1142 b 813 1365 754 1142 810 1244 l 682 1374 b 629 1304 679 1329 660 1304 z m 840 0 l 1074 0 l 628 1047 l 439 1047 l -7 0 l 221 0 l 311 219 l 750 219 z m 531 753 l 674 404 l 388 404 z "},"Æ":{"ha":1415,"x_min":0,"x_max":0,"o":"m 736 0 l 1358 0 l 1358 186 l 956 186 l 956 447 l 1347 447 l 1347 633 l 956 633 l 956 861 l 1357 861 l 1357 1047 l 621 1047 l -12 0 l 228 0 l 369 238 l 736 238 z m 479 422 l 736 856 l 736 422 z "},"Ǽ":{"ha":1415,"x_min":0,"x_max":0,"o":"m 840 1179 l 915 1090 l 1267 1290 l 1132 1449 z m 736 0 l 1358 0 l 1358 186 l 956 186 l 956 447 l 1347 447 l 1347 633 l 956 633 l 956 861 l 1357 861 l 1357 1047 l 621 1047 l -12 0 l 228 0 l 369 238 l 736 238 z m 479 422 l 736 856 l 736 422 z "},"Ć":{"ha":893,"x_min":0,"x_max":0,"o":"m 408 1179 l 483 1090 l 835 1290 l 700 1449 z m 263 524 b 590 853 263 711 403 853 b 839 756 693 853 781 813 l 839 1006 b 586 1064 764 1043 676 1064 b 39 524 283 1064 39 821 b 586 -17 39 226 283 -17 b 839 42 676 -17 764 3 l 839 292 b 590 194 781 235 693 194 b 263 524 403 194 263 336 z "},"Č":{"ha":893,"x_min":0,"x_max":0,"o":"m 569 1096 l 856 1358 l 758 1442 l 569 1317 l 379 1442 l 283 1358 z m 263 524 b 590 853 263 711 403 853 b 839 756 693 853 781 813 l 839 1006 b 586 1064 764 1043 676 1064 b 39 524 283 1064 39 821 b 586 -17 39 226 283 -17 b 839 42 676 -17 764 3 l 839 292 b 590 194 781 235 693 194 b 263 524 403 194 263 336 z "},"Ç":{"ha":893,"x_min":0,"x_max":0,"o":"m 263 524 b 590 853 263 711 403 853 b 839 756 693 853 781 813 l 839 1006 b 586 1064 764 1043 676 1064 b 39 524 283 1064 39 821 b 586 -17 39 226 283 -17 b 839 42 676 -17 764 3 l 839 292 b 590 194 781 235 693 194 b 263 524 403 194 263 336 z m 404 -297 l 507 -365 l 710 -154 l 543 -47 z "},"Ĉ":{"ha":893,"x_min":0,"x_max":0,"o":"m 539 1446 l 253 1183 l 350 1100 l 539 1225 l 729 1100 l 825 1183 z m 263 524 b 590 853 263 711 403 853 b 839 756 693 853 781 813 l 839 1006 b 586 1064 764 1043 676 1064 b 39 524 283 1064 39 821 b 586 -17 39 226 283 -17 b 839 42 676 -17 764 3 l 839 292 b 590 194 781 235 693 194 b 263 524 403 194 263 336 z "},"Ċ":{"ha":893,"x_min":0,"x_max":0,"o":"m 539 1131 b 665 1256 608 1131 665 1186 b 539 1381 665 1325 608 1381 b 414 1256 471 1381 414 1325 b 539 1131 414 1186 471 1131 z m 263 524 b 590 853 263 711 403 853 b 839 756 693 853 781 813 l 839 1006 b 586 1064 764 1043 676 1064 b 39 524 283 1064 39 821 b 586 -17 39 226 283 -17 b 839 42 676 -17 764 3 l 839 292 b 590 194 781 235 693 194 b 263 524 403 194 263 336 z "},"Ď":{"ha":1019,"x_min":0,"x_max":0,"o":"m 540 1096 l 826 1358 l 729 1442 l 540 1317 l 350 1442 l 254 1358 z m 97 1047 l 97 0 l 428 0 b 981 524 738 0 981 221 b 428 1047 981 826 738 1047 z m 756 524 b 414 186 756 332 617 186 l 321 186 l 321 861 l 415 861 b 756 524 617 861 756 715 z "},"Đ":{"ha":1019,"x_min":0,"x_max":0,"o":"m 18 447 l 107 447 l 107 0 l 438 0 b 990 524 747 0 990 221 b 438 1047 990 826 747 1047 l 107 1047 l 107 633 l 18 633 z m 765 524 b 424 186 765 332 626 186 l 331 186 l 331 447 l 490 447 l 490 633 l 331 633 l 331 861 l 425 861 b 765 524 626 861 765 715 z "},"É":{"ha":786,"x_min":0,"x_max":0,"o":"m 289 1179 l 364 1090 l 715 1290 l 581 1449 z m 97 0 l 719 0 l 719 186 l 317 186 l 317 447 l 708 447 l 708 633 l 317 633 l 317 861 l 718 861 l 718 1047 l 97 1047 z "},"Ĕ":{"ha":786,"x_min":0,"x_max":0,"o":"m 419 1104 b 683 1356 561 1104 674 1211 l 531 1379 b 419 1261 521 1303 475 1261 b 310 1379 365 1261 319 1303 l 156 1356 b 419 1104 165 1211 279 1104 z m 97 0 l 719 0 l 719 186 l 317 186 l 317 447 l 708 447 l 708 633 l 317 633 l 317 861 l 718 861 l 718 1047 l 97 1047 z "},"Ě":{"ha":786,"x_min":0,"x_max":0,"o":"m 450 1096 l 736 1358 l 639 1442 l 450 1317 l 260 1442 l 164 1358 z m 97 0 l 719 0 l 719 186 l 317 186 l 317 447 l 708 447 l 708 633 l 317 633 l 317 861 l 718 861 l 718 1047 l 97 1047 z "},"Ê":{"ha":786,"x_min":0,"x_max":0,"o":"m 419 1446 l 133 1183 l 231 1100 l 419 1225 l 610 1100 l 706 1183 z m 97 0 l 719 0 l 719 186 l 317 186 l 317 447 l 708 447 l 708 633 l 317 633 l 317 861 l 718 861 l 718 1047 l 97 1047 z "},"Ë":{"ha":786,"x_min":0,"x_max":0,"o":"m 251 1131 b 371 1251 317 1131 371 1183 b 251 1374 371 1319 317 1374 b 129 1251 185 1374 129 1319 b 251 1131 129 1183 185 1131 z m 589 1131 b 711 1251 656 1131 711 1183 b 589 1374 711 1319 656 1374 b 468 1251 524 1374 468 1319 b 589 1131 468 1183 524 1131 z m 97 0 l 719 0 l 719 186 l 317 186 l 317 447 l 708 447 l 708 633 l 317 633 l 317 861 l 718 861 l 718 1047 l 97 1047 z "},"Ė":{"ha":786,"x_min":0,"x_max":0,"o":"m 419 1131 b 546 1256 489 1131 546 1186 b 419 1381 546 1325 489 1381 b 294 1256 351 1381 294 1325 b 419 1131 294 1186 351 1131 z m 97 0 l 719 0 l 719 186 l 317 186 l 317 447 l 708 447 l 708 633 l 317 633 l 317 861 l 718 861 l 718 1047 l 97 1047 z "},"È":{"ha":786,"x_min":0,"x_max":0,"o":"m 582 1179 l 290 1449 l 156 1290 l 507 1090 z m 97 0 l 719 0 l 719 186 l 317 186 l 317 447 l 708 447 l 708 633 l 317 633 l 317 861 l 718 861 l 718 1047 l 97 1047 z "},"Ē":{"ha":786,"x_min":0,"x_max":0,"o":"m 179 1144 l 661 1144 l 661 1310 l 179 1310 z m 97 0 l 719 0 l 719 186 l 317 186 l 317 447 l 708 447 l 708 633 l 317 633 l 317 861 l 718 861 l 718 1047 l 97 1047 z "},"Ę":{"ha":786,"x_min":0,"x_max":0,"o":"m 97 0 l 454 0 b 332 -211 379 -68 332 -135 b 504 -364 332 -311 413 -364 b 689 -276 576 -364 642 -333 l 615 -165 b 542 -211 592 -194 568 -211 b 493 -162 514 -211 493 -193 b 622 0 493 -122 529 -78 l 719 0 l 719 186 l 317 186 l 317 447 l 708 447 l 708 633 l 317 633 l 317 861 l 718 861 l 718 1047 l 97 1047 z "},"Ð":{"ha":1019,"x_min":0,"x_max":0,"o":"m 18 447 l 107 447 l 107 0 l 438 0 b 990 524 747 0 990 221 b 438 1047 990 826 747 1047 l 107 1047 l 107 633 l 18 633 z m 765 524 b 424 186 765 332 626 186 l 331 186 l 331 447 l 490 447 l 490 633 l 331 633 l 331 861 l 425 861 b 765 524 626 861 765 715 z "},"Ğ":{"ha":1117,"x_min":0,"x_max":0,"o":"m 561 1104 b 825 1356 703 1104 815 1211 l 672 1379 b 561 1261 663 1303 617 1261 b 451 1379 507 1261 461 1303 l 297 1356 b 561 1104 307 1211 421 1104 z m 1085 565 l 600 565 l 600 379 l 851 379 b 583 189 813 251 714 189 b 263 524 404 189 263 338 b 579 853 263 710 404 853 b 842 689 693 853 789 788 l 1028 808 b 579 1064 936 965 772 1064 b 39 524 281 1064 39 821 b 579 -17 39 226 281 -17 b 1085 565 878 -17 1111 201 z "},"Ĝ":{"ha":1117,"x_min":0,"x_max":0,"o":"m 561 1446 l 275 1183 l 372 1100 l 561 1225 l 751 1100 l 847 1183 z m 1085 565 l 600 565 l 600 379 l 851 379 b 583 189 813 251 714 189 b 263 524 404 189 263 338 b 579 853 263 710 404 853 b 842 689 693 853 789 788 l 1028 808 b 579 1064 936 965 772 1064 b 39 524 281 1064 39 821 b 579 -17 39 226 281 -17 b 1085 565 878 -17 1111 201 z "},"Ģ":{"ha":1117,"x_min":0,"x_max":0,"o":"m 1085 565 l 600 565 l 600 379 l 851 379 b 583 189 813 251 714 189 b 263 524 404 189 263 338 b 579 853 263 710 404 853 b 842 689 693 853 789 788 l 1028 808 b 579 1064 936 965 772 1064 b 39 524 281 1064 39 821 b 579 -17 39 226 281 -17 b 1085 565 878 -17 1111 201 z m 426 -297 l 529 -365 l 732 -154 l 565 -47 z "},"Ġ":{"ha":1117,"x_min":0,"x_max":0,"o":"m 561 1131 b 688 1256 631 1131 688 1186 b 561 1381 688 1325 631 1381 b 436 1256 493 1381 436 1325 b 561 1131 436 1186 493 1131 z m 1085 565 l 600 565 l 600 379 l 851 379 b 583 189 813 251 714 189 b 263 524 404 189 263 338 b 579 853 263 710 404 853 b 842 689 693 853 789 788 l 1028 808 b 579 1064 936 965 772 1064 b 39 524 281 1064 39 821 b 579 -17 39 226 281 -17 b 1085 565 878 -17 1111 201 z "},"Ħ":{"ha":1083,"x_min":0,"x_max":0,"o":"m 753 0 l 976 0 l 976 671 l 1064 671 l 1064 857 l 976 857 l 976 1047 l 753 1047 l 753 857 l 329 857 l 329 1047 l 107 1047 l 107 857 l 18 857 l 18 671 l 107 671 l 107 0 l 329 0 l 329 332 l 753 332 z m 329 518 l 329 671 l 753 671 l 753 518 z "},"Ĥ":{"ha":1064,"x_min":0,"x_max":0,"o":"m 532 1446 l 246 1183 l 343 1100 l 532 1225 l 722 1100 l 818 1183 z m 744 0 l 967 0 l 967 1047 l 744 1047 l 744 633 l 321 633 l 321 1047 l 97 1047 l 97 0 l 321 0 l 321 447 l 744 447 z "},"Í":{"ha":418,"x_min":0,"x_max":0,"o":"m 78 1179 l 153 1090 l 504 1290 l 369 1449 z m 321 1047 l 97 1047 l 97 0 l 321 0 z "},"Ĭ":{"ha":418,"x_min":0,"x_max":0,"o":"m 208 1104 b 472 1356 350 1104 463 1211 l 319 1379 b 208 1261 310 1303 264 1261 b 99 1379 154 1261 108 1303 l -56 1356 b 208 1104 -46 1211 68 1104 z m 321 1047 l 97 1047 l 97 0 l 321 0 z "},"Î":{"ha":418,"x_min":0,"x_max":0,"o":"m 208 1446 l -78 1183 l 19 1100 l 208 1225 l 399 1100 l 494 1183 z m 321 1047 l 97 1047 l 97 0 l 321 0 z "},"Ï":{"ha":418,"x_min":0,"x_max":0,"o":"m 40 1131 b 160 1251 106 1131 160 1183 b 40 1374 160 1319 106 1374 b -82 1251 -26 1374 -82 1319 b 40 1131 -82 1183 -26 1131 z m 378 1131 b 500 1251 444 1131 500 1183 b 378 1374 500 1319 444 1374 b 257 1251 313 1374 257 1319 b 378 1131 257 1183 313 1131 z m 321 1047 l 97 1047 l 97 0 l 321 0 z "},"İ":{"ha":418,"x_min":0,"x_max":0,"o":"m 208 1131 b 335 1256 278 1131 335 1186 b 208 1381 335 1325 278 1381 b 83 1256 140 1381 83 1325 b 208 1131 83 1186 140 1131 z m 321 1047 l 97 1047 l 97 0 l 321 0 z "},"Ì":{"ha":418,"x_min":0,"x_max":0,"o":"m 371 1179 l 79 1449 l -56 1290 l 296 1090 z m 321 1047 l 97 1047 l 97 0 l 321 0 z "},"Ī":{"ha":418,"x_min":0,"x_max":0,"o":"m -32 1144 l 450 1144 l 450 1310 l -32 1310 z m 321 1047 l 97 1047 l 97 0 l 321 0 z "},"Į":{"ha":418,"x_min":0,"x_max":0,"o":"m 321 1047 l 97 1047 l 97 0 l 126 0 b 4 -211 51 -68 4 -135 b 176 -364 4 -311 85 -364 b 361 -276 249 -364 314 -333 l 288 -165 b 214 -211 264 -194 240 -211 b 165 -162 186 -211 165 -193 b 294 0 165 -122 201 -78 l 321 0 z "},"Ĩ":{"ha":418,"x_min":0,"x_max":0,"o":"m 304 1304 b 89 1375 242 1304 183 1375 b -69 1151 -12 1375 -67 1274 l 61 1143 b 113 1214 63 1188 83 1214 b 329 1142 179 1214 235 1142 b 488 1365 429 1142 485 1244 l 357 1374 b 304 1304 354 1329 335 1304 z m 321 1047 l 97 1047 l 97 0 l 321 0 z "},"Ĵ":{"ha":710,"x_min":0,"x_max":0,"o":"m 514 1446 l 228 1183 l 325 1100 l 514 1225 l 704 1100 l 800 1183 z m 626 338 l 626 1047 l 403 1047 l 403 344 b 271 186 403 243 357 186 b 142 274 213 186 171 219 l -18 133 b 272 -17 39 44 153 -17 b 626 338 478 -17 626 122 z "},"Ĳ":{"ha":1128,"x_min":0,"x_max":0,"o":"m 321 1047 l 97 1047 l 97 0 l 321 0 z m 1044 338 l 1044 1047 l 821 1047 l 821 344 b 689 186 821 243 775 186 b 560 274 631 186 589 219 l 400 133 b 690 -17 457 44 571 -17 b 1044 338 896 -17 1044 122 z "},"Ķ":{"ha":990,"x_min":0,"x_max":0,"o":"m 321 1047 l 97 1047 l 97 0 l 321 0 l 321 361 l 396 446 l 738 0 l 1008 0 l 549 603 l 949 1047 l 682 1047 l 321 631 z m 403 -297 l 506 -365 l 708 -154 l 542 -47 z "},"Ĺ":{"ha":749,"x_min":0,"x_max":0,"o":"m 86 1179 l 161 1090 l 513 1290 l 378 1449 z m 97 0 l 710 0 l 710 186 l 321 186 l 321 1047 l 97 1047 z "},"Ľ":{"ha":749,"x_min":0,"x_max":0,"o":"m 424 729 l 547 694 l 686 1008 l 496 1064 z m 97 0 l 710 0 l 710 186 l 321 186 l 321 1047 l 97 1047 z "},"Ļ":{"ha":749,"x_min":0,"x_max":0,"o":"m 97 0 l 710 0 l 710 186 l 321 186 l 321 1047 l 97 1047 z m 267 -297 l 369 -365 l 572 -154 l 406 -47 z "},"Ŀ":{"ha":749,"x_min":0,"x_max":0,"o":"m 97 0 l 710 0 l 710 186 l 321 186 l 321 1047 l 97 1047 z m 582 463 b 708 588 651 463 708 518 b 582 713 708 657 651 713 b 457 588 514 713 457 657 b 582 463 457 518 514 463 z "},"Ł":{"ha":754,"x_min":0,"x_max":0,"o":"m 333 635 l 333 1047 l 110 1047 l 110 554 l 13 510 l 13 326 l 110 371 l 110 0 l 722 0 l 722 186 l 333 186 l 333 451 l 539 544 l 539 728 z "},"Ń":{"ha":1135,"x_min":0,"x_max":0,"o":"m 436 1179 l 511 1090 l 863 1290 l 728 1449 z m 97 1047 l 97 0 l 313 0 l 313 678 l 871 0 l 1038 0 l 1038 1047 l 822 1047 l 822 376 l 274 1047 z "},"Ň":{"ha":1135,"x_min":0,"x_max":0,"o":"m 597 1096 l 883 1358 l 786 1442 l 597 1317 l 407 1442 l 311 1358 z m 97 1047 l 97 0 l 313 0 l 313 678 l 871 0 l 1038 0 l 1038 1047 l 822 1047 l 822 376 l 274 1047 z "},"Ņ":{"ha":1135,"x_min":0,"x_max":0,"o":"m 97 1047 l 97 0 l 313 0 l 313 678 l 871 0 l 1038 0 l 1038 1047 l 822 1047 l 822 376 l 274 1047 z m 432 -297 l 535 -365 l 738 -154 l 571 -47 z "},"Ñ":{"ha":1135,"x_min":0,"x_max":0,"o":"m 663 1304 b 447 1375 600 1304 542 1375 b 289 1151 346 1375 292 1274 l 419 1143 b 471 1214 421 1188 442 1214 b 688 1142 538 1214 593 1142 b 846 1365 788 1142 843 1244 l 715 1374 b 663 1304 713 1329 693 1304 z m 97 1047 l 97 0 l 313 0 l 313 678 l 871 0 l 1038 0 l 1038 1047 l 822 1047 l 822 376 l 274 1047 z "},"Ŋ":{"ha":1135,"x_min":0,"x_max":0,"o":"m 97 1047 l 97 0 l 315 0 l 315 672 l 825 54 l 825 -349 l 1038 -349 l 1038 1047 l 819 1047 l 819 381 l 274 1047 z "},"Ó":{"ha":1160,"x_min":0,"x_max":0,"o":"m 449 1179 l 524 1090 l 875 1290 l 740 1449 z m 39 524 b 579 -17 39 226 281 -17 b 1121 524 881 -17 1121 226 b 579 1064 1121 821 881 1064 b 39 524 281 1064 39 821 z m 896 524 b 579 192 896 332 756 192 b 263 524 404 192 263 332 b 579 856 263 715 404 856 b 896 524 756 856 896 715 z "},"Ŏ":{"ha":1160,"x_min":0,"x_max":0,"o":"m 579 1104 b 843 1356 721 1104 833 1211 l 690 1379 b 579 1261 681 1303 635 1261 b 469 1379 525 1261 479 1303 l 315 1356 b 579 1104 325 1211 439 1104 z m 39 524 b 579 -17 39 226 281 -17 b 1121 524 881 -17 1121 226 b 579 1064 1121 821 881 1064 b 39 524 281 1064 39 821 z m 896 524 b 579 192 896 332 756 192 b 263 524 404 192 263 332 b 579 856 263 715 404 856 b 896 524 756 856 896 715 z "},"Ô":{"ha":1160,"x_min":0,"x_max":0,"o":"m 579 1446 l 293 1183 l 390 1100 l 579 1225 l 769 1100 l 865 1183 z m 39 524 b 579 -17 39 226 281 -17 b 1121 524 881 -17 1121 226 b 579 1064 1121 821 881 1064 b 39 524 281 1064 39 821 z m 896 524 b 579 192 896 332 756 192 b 263 524 404 192 263 332 b 579 856 263 715 404 856 b 896 524 756 856 896 715 z "},"Ö":{"ha":1160,"x_min":0,"x_max":0,"o":"m 411 1131 b 531 1251 476 1131 531 1183 b 411 1374 531 1319 476 1374 b 289 1251 344 1374 289 1319 b 411 1131 289 1183 344 1131 z m 749 1131 b 871 1251 815 1131 871 1183 b 749 1374 871 1319 815 1374 b 628 1251 683 1374 628 1319 b 749 1131 628 1183 683 1131 z m 39 524 b 579 -17 39 226 281 -17 b 1121 524 881 -17 1121 226 b 579 1064 1121 821 881 1064 b 39 524 281 1064 39 821 z m 896 524 b 579 192 896 332 756 192 b 263 524 404 192 263 332 b 579 856 263 715 404 856 b 896 524 756 856 896 715 z "},"Ò":{"ha":1160,"x_min":0,"x_max":0,"o":"m 742 1179 l 450 1449 l 315 1290 l 667 1090 z m 39 524 b 579 -17 39 226 281 -17 b 1121 524 881 -17 1121 226 b 579 1064 1121 821 881 1064 b 39 524 281 1064 39 821 z m 896 524 b 579 192 896 332 756 192 b 263 524 404 192 263 332 b 579 856 263 715 404 856 b 896 524 756 856 896 715 z "},"Ő":{"ha":1160,"x_min":0,"x_max":0,"o":"m 304 1175 l 392 1100 l 656 1303 l 513 1432 z m 631 1175 l 717 1100 l 982 1303 l 839 1432 z m 39 524 b 579 -17 39 226 281 -17 b 1121 524 881 -17 1121 226 b 579 1064 1121 821 881 1064 b 39 524 281 1064 39 821 z m 896 524 b 579 192 896 332 756 192 b 263 524 404 192 263 332 b 579 856 263 715 404 856 b 896 524 756 856 896 715 z "},"Ō":{"ha":1160,"x_min":0,"x_max":0,"o":"m 339 1144 l 821 1144 l 821 1310 l 339 1310 z m 39 524 b 579 -17 39 226 281 -17 b 1121 524 881 -17 1121 226 b 579 1064 1121 821 881 1064 b 39 524 281 1064 39 821 z m 896 524 b 579 192 896 332 756 192 b 263 524 404 192 263 332 b 579 856 263 715 404 856 b 896 524 756 856 896 715 z "},"Ø":{"ha":1160,"x_min":0,"x_max":0,"o":"m 1121 524 b 1015 844 1121 643 1082 756 l 1115 951 l 996 1060 l 900 958 b 579 1064 811 1025 700 1064 b 39 524 281 1064 39 821 b 144 203 39 404 78 293 l 44 96 l 164 -12 l 260 89 b 579 -17 349 22 460 -17 b 1121 524 881 -17 1121 226 z m 258 524 b 579 861 258 718 401 861 b 747 814 642 861 699 844 l 306 344 b 258 524 275 396 258 457 z m 901 524 b 579 186 901 329 758 186 b 413 233 518 186 461 203 l 854 703 b 901 524 885 651 901 590 z "},"Ǿ":{"ha":1160,"x_min":0,"x_max":0,"o":"m 449 1179 l 524 1090 l 875 1290 l 740 1449 z m 1121 524 b 1015 844 1121 643 1082 756 l 1115 951 l 996 1060 l 900 958 b 579 1064 811 1025 700 1064 b 39 524 281 1064 39 821 b 144 203 39 404 78 293 l 44 96 l 164 -12 l 260 89 b 579 -17 349 22 460 -17 b 1121 524 881 -17 1121 226 z m 258 524 b 579 861 258 718 401 861 b 747 814 642 861 699 844 l 306 344 b 258 524 275 396 258 457 z m 901 524 b 579 186 901 329 758 186 b 413 233 518 186 461 203 l 854 703 b 901 524 885 651 901 590 z "},"Õ":{"ha":1160,"x_min":0,"x_max":0,"o":"m 675 1304 b 460 1375 613 1304 554 1375 b 301 1151 358 1375 304 1274 l 432 1143 b 483 1214 433 1188 454 1214 b 700 1142 550 1214 606 1142 b 858 1365 800 1142 856 1244 l 728 1374 b 675 1304 725 1329 706 1304 z m 39 524 b 579 -17 39 226 281 -17 b 1121 524 881 -17 1121 226 b 579 1064 1121 821 881 1064 b 39 524 281 1064 39 821 z m 896 524 b 579 192 896 332 756 192 b 263 524 404 192 263 332 b 579 856 263 715 404 856 b 896 524 756 856 896 715 z "},"Œ":{"ha":1368,"x_min":0,"x_max":0,"o":"m 39 524 b 592 0 39 221 281 0 l 1311 0 l 1311 186 l 908 186 l 908 447 l 1301 447 l 1301 633 l 908 633 l 908 861 l 1311 861 l 1311 1047 l 592 1047 b 39 524 281 1047 39 826 z m 263 524 b 606 861 263 715 403 861 l 689 861 l 689 186 l 604 186 b 263 524 403 186 263 332 z "},"Ŕ":{"ha":892,"x_min":0,"x_max":0,"o":"m 310 1179 l 385 1090 l 736 1290 l 601 1449 z m 318 400 l 338 400 l 636 0 l 903 0 l 572 426 b 803 724 711 472 803 576 b 407 1047 803 929 638 1047 l 97 1047 l 97 0 l 318 0 z m 318 864 l 403 864 b 578 718 504 864 578 814 b 403 569 578 619 504 569 l 318 569 z "},"Ř":{"ha":892,"x_min":0,"x_max":0,"o":"m 472 1096 l 758 1358 l 661 1442 l 472 1317 l 282 1442 l 186 1358 z m 318 400 l 338 400 l 636 0 l 903 0 l 572 426 b 803 724 711 472 803 576 b 407 1047 803 929 638 1047 l 97 1047 l 97 0 l 318 0 z m 318 864 l 403 864 b 578 718 504 864 578 814 b 403 569 578 619 504 569 l 318 569 z "},"Ŗ":{"ha":892,"x_min":0,"x_max":0,"o":"m 318 400 l 338 400 l 636 0 l 903 0 l 572 426 b 803 724 711 472 803 576 b 407 1047 803 929 638 1047 l 97 1047 l 97 0 l 318 0 z m 318 864 l 403 864 b 578 718 504 864 578 814 b 403 569 578 619 504 569 l 318 569 z m 329 -297 l 432 -365 l 635 -154 l 468 -47 z "},"Ś":{"ha":785,"x_min":0,"x_max":0,"o":"m 271 1179 l 346 1090 l 697 1290 l 563 1449 z m 765 325 b 269 763 765 703 269 579 b 390 875 269 832 322 875 b 529 764 464 875 510 824 l 735 840 b 399 1064 689 976 563 1064 b 51 747 190 1064 51 918 b 543 314 51 381 543 514 b 388 174 543 228 476 174 b 200 339 293 174 224 239 l -8 272 b 381 -17 31 97 186 -17 b 765 325 593 -17 765 128 z "},"Š":{"ha":785,"x_min":0,"x_max":0,"o":"m 433 1096 l 719 1358 l 622 1442 l 433 1317 l 243 1442 l 147 1358 z m 765 325 b 269 763 765 703 269 579 b 390 875 269 832 322 875 b 529 764 464 875 510 824 l 735 840 b 399 1064 689 976 563 1064 b 51 747 190 1064 51 918 b 543 314 51 381 543 514 b 388 174 543 228 476 174 b 200 339 293 174 224 239 l -8 272 b 381 -17 31 97 186 -17 b 765 325 593 -17 765 128 z "},"Ş":{"ha":785,"x_min":0,"x_max":0,"o":"m 765 325 b 269 763 765 703 269 579 b 390 875 269 832 322 875 b 529 764 464 875 510 824 l 735 840 b 399 1064 689 976 563 1064 b 51 747 190 1064 51 918 b 543 314 51 381 543 514 b 388 174 543 228 476 174 b 200 339 293 174 224 239 l -8 272 b 381 -17 31 97 186 -17 b 765 325 593 -17 765 128 z m 250 -297 l 353 -365 l 556 -154 l 389 -47 z "},"Ŝ":{"ha":785,"x_min":0,"x_max":0,"o":"m 403 1446 l 117 1183 l 214 1100 l 403 1225 l 593 1100 l 689 1183 z m 765 325 b 269 763 765 703 269 579 b 390 875 269 832 322 875 b 529 764 464 875 510 824 l 735 840 b 399 1064 689 976 563 1064 b 51 747 190 1064 51 918 b 543 314 51 381 543 514 b 388 174 543 228 476 174 b 200 339 293 174 224 239 l -8 272 b 381 -17 31 97 186 -17 b 765 325 593 -17 765 128 z "},"Ș":{"ha":785,"x_min":0,"x_max":0,"o":"m 765 325 b 269 763 765 703 269 579 b 390 875 269 832 322 875 b 529 764 464 875 510 824 l 735 840 b 399 1064 689 976 563 1064 b 51 747 190 1064 51 918 b 543 314 51 381 543 514 b 388 174 543 228 476 174 b 200 339 293 174 224 239 l -8 272 b 381 -17 31 97 186 -17 b 765 325 593 -17 765 128 z m 250 -297 l 353 -365 l 556 -154 l 389 -47 z "},"ẞ":{"ha":961,"x_min":0,"x_max":0,"o":"m 474 557 b 706 376 606 557 706 496 b 469 194 706 257 613 194 l 469 -3 b 921 378 703 -4 921 128 b 736 675 921 514 857 611 l 911 1047 l 97 1047 l 97 0 l 321 0 l 321 863 l 621 863 z "},"Ŧ":{"ha":851,"x_min":0,"x_max":0,"o":"m 143 447 l 314 447 l 314 0 l 538 0 l 538 447 l 708 447 l 708 633 l 538 633 l 538 861 l 813 861 l 813 1047 l 39 1047 l 39 861 l 314 861 l 314 633 l 143 633 z "},"Ť":{"ha":851,"x_min":0,"x_max":0,"o":"m 456 1096 l 742 1358 l 644 1442 l 456 1317 l 265 1442 l 169 1358 z m 813 861 l 813 1047 l 39 1047 l 39 861 l 314 861 l 314 0 l 538 0 l 538 861 z "},"Ţ":{"ha":851,"x_min":0,"x_max":0,"o":"m 813 861 l 813 1047 l 39 1047 l 39 861 l 314 861 l 314 0 l 538 0 l 538 861 z m 290 -297 l 393 -365 l 596 -154 l 429 -47 z "},"Ț":{"ha":851,"x_min":0,"x_max":0,"o":"m 813 861 l 813 1047 l 39 1047 l 39 861 l 314 861 l 314 0 l 538 0 l 538 861 z m 290 -297 l 393 -365 l 596 -154 l 429 -47 z "},"Þ":{"ha":819,"x_min":0,"x_max":0,"o":"m 321 204 l 408 204 b 803 533 640 204 803 328 b 408 864 803 740 640 864 l 321 864 l 321 1047 l 97 1047 l 97 0 l 321 0 z m 321 681 l 406 681 b 578 533 506 681 578 632 b 406 388 578 438 506 388 l 321 388 z "},"Ú":{"ha":1007,"x_min":0,"x_max":0,"o":"m 372 1179 l 447 1090 l 799 1290 l 664 1449 z m 503 183 b 307 415 385 183 307 261 l 307 1047 l 83 1047 l 83 414 b 503 -17 83 138 267 -17 b 924 414 740 -17 924 138 l 924 1047 l 700 1047 l 700 415 b 503 183 700 261 622 183 z "},"Ŭ":{"ha":1007,"x_min":0,"x_max":0,"o":"m 503 1104 b 767 1356 644 1104 757 1211 l 614 1379 b 503 1261 604 1303 558 1261 b 393 1379 449 1261 403 1303 l 239 1356 b 503 1104 249 1211 363 1104 z m 503 183 b 307 415 385 183 307 261 l 307 1047 l 83 1047 l 83 414 b 503 -17 83 138 267 -17 b 924 414 740 -17 924 138 l 924 1047 l 700 1047 l 700 415 b 503 183 700 261 622 183 z "},"Û":{"ha":1007,"x_min":0,"x_max":0,"o":"m 503 1446 l 217 1183 l 314 1100 l 503 1225 l 693 1100 l 789 1183 z m 503 183 b 307 415 385 183 307 261 l 307 1047 l 83 1047 l 83 414 b 503 -17 83 138 267 -17 b 924 414 740 -17 924 138 l 924 1047 l 700 1047 l 700 415 b 503 183 700 261 622 183 z "},"Ü":{"ha":1007,"x_min":0,"x_max":0,"o":"m 335 1131 b 454 1251 400 1131 454 1183 b 335 1374 454 1319 400 1374 b 213 1251 268 1374 213 1319 b 335 1131 213 1183 268 1131 z m 672 1131 b 794 1251 739 1131 794 1183 b 672 1374 794 1319 739 1374 b 551 1251 607 1374 551 1319 b 672 1131 551 1183 607 1131 z m 503 183 b 307 415 385 183 307 261 l 307 1047 l 83 1047 l 83 414 b 503 -17 83 138 267 -17 b 924 414 740 -17 924 138 l 924 1047 l 700 1047 l 700 415 b 503 183 700 261 622 183 z "},"Ù":{"ha":1007,"x_min":0,"x_max":0,"o":"m 665 1179 l 374 1449 l 239 1290 l 590 1090 z m 503 183 b 307 415 385 183 307 261 l 307 1047 l 83 1047 l 83 414 b 503 -17 83 138 267 -17 b 924 414 740 -17 924 138 l 924 1047 l 700 1047 l 700 415 b 503 183 700 261 622 183 z "},"Ű":{"ha":1007,"x_min":0,"x_max":0,"o":"m 228 1175 l 315 1100 l 579 1303 l 436 1432 z m 554 1175 l 640 1100 l 906 1303 l 763 1432 z m 503 183 b 307 415 385 183 307 261 l 307 1047 l 83 1047 l 83 414 b 503 -17 83 138 267 -17 b 924 414 740 -17 924 138 l 924 1047 l 700 1047 l 700 415 b 503 183 700 261 622 183 z "},"Ū":{"ha":1007,"x_min":0,"x_max":0,"o":"m 263 1144 l 744 1144 l 744 1310 l 263 1310 z m 503 183 b 307 415 385 183 307 261 l 307 1047 l 83 1047 l 83 414 b 503 -17 83 138 267 -17 b 924 414 740 -17 924 138 l 924 1047 l 700 1047 l 700 415 b 503 183 700 261 622 183 z "},"Ų":{"ha":1007,"x_min":0,"x_max":0,"o":"m 543 -364 b 728 -276 617 -364 681 -333 l 656 -165 b 581 -211 631 -194 607 -211 b 532 -161 553 -211 532 -193 b 706 28 532 -115 574 -50 b 924 414 838 103 924 211 l 924 1047 l 700 1047 l 700 415 b 503 183 700 261 622 183 b 307 415 385 183 307 261 l 307 1047 l 83 1047 l 83 414 b 476 -17 83 147 253 -6 b 371 -211 411 -74 371 -144 b 543 -364 371 -311 453 -364 z "},"Ů":{"ha":1007,"x_min":0,"x_max":0,"o":"m 706 1268 b 503 1464 706 1376 617 1464 b 301 1268 389 1464 301 1376 b 503 1072 301 1158 390 1072 b 706 1268 617 1072 706 1158 z m 424 1268 b 503 1347 424 1313 458 1347 b 583 1268 547 1347 583 1313 b 503 1188 583 1224 547 1188 b 424 1268 458 1188 424 1224 z m 503 183 b 307 415 385 183 307 261 l 307 1047 l 83 1047 l 83 414 b 503 -17 83 138 267 -17 b 924 414 740 -17 924 138 l 924 1047 l 700 1047 l 700 415 b 503 183 700 261 622 183 z "},"Ũ":{"ha":1007,"x_min":0,"x_max":0,"o":"m 599 1304 b 383 1375 536 1304 478 1375 b 225 1151 282 1375 228 1274 l 356 1143 b 407 1214 357 1188 378 1214 b 624 1142 474 1214 529 1142 b 782 1365 724 1142 779 1244 l 651 1374 b 599 1304 649 1329 629 1304 z m 503 183 b 307 415 385 183 307 261 l 307 1047 l 83 1047 l 83 414 b 503 -17 83 138 267 -17 b 924 414 740 -17 924 138 l 924 1047 l 700 1047 l 700 415 b 503 183 700 261 622 183 z "},"Ẃ":{"ha":1449,"x_min":0,"x_max":0,"o":"m 593 1179 l 668 1090 l 1019 1290 l 885 1449 z m 1457 1047 l 1224 1047 l 999 356 l 804 1047 l 649 1047 l 454 356 l 228 1047 l -7 1047 l 349 0 l 532 0 l 725 683 l 917 0 l 1101 0 z "},"Ŵ":{"ha":1449,"x_min":0,"x_max":0,"o":"m 724 1446 l 438 1183 l 535 1100 l 724 1225 l 914 1100 l 1010 1183 z m 1457 1047 l 1224 1047 l 999 356 l 804 1047 l 649 1047 l 454 356 l 228 1047 l -7 1047 l 349 0 l 532 0 l 725 683 l 917 0 l 1101 0 z "},"Ẁ":{"ha":1449,"x_min":0,"x_max":0,"o":"m 886 1179 l 594 1449 l 460 1290 l 811 1090 z m 1457 1047 l 1224 1047 l 999 356 l 804 1047 l 649 1047 l 454 356 l 228 1047 l -7 1047 l 349 0 l 532 0 l 725 683 l 917 0 l 1101 0 z "},"Ẅ":{"ha":1449,"x_min":0,"x_max":0,"o":"m 556 1131 b 675 1251 621 1131 675 1183 b 556 1374 675 1319 621 1374 b 433 1251 489 1374 433 1319 b 556 1131 433 1183 489 1131 z m 893 1131 b 1015 1251 960 1131 1015 1183 b 893 1374 1015 1319 960 1374 b 772 1251 828 1374 772 1319 b 893 1131 772 1183 828 1131 z m 1457 1047 l 1224 1047 l 999 356 l 804 1047 l 649 1047 l 454 356 l 228 1047 l -7 1047 l 349 0 l 532 0 l 725 683 l 917 0 l 1101 0 z "},"Ý":{"ha":946,"x_min":0,"x_max":0,"o":"m 342 1179 l 417 1090 l 768 1290 l 633 1449 z m 583 0 l 583 449 l 963 1047 l 713 1047 l 474 660 l 235 1047 l -17 1047 l 361 449 l 361 0 z "},"Ŷ":{"ha":946,"x_min":0,"x_max":0,"o":"m 472 1446 l 186 1183 l 283 1100 l 472 1225 l 663 1100 l 758 1183 z m 583 0 l 583 449 l 963 1047 l 713 1047 l 474 660 l 235 1047 l -17 1047 l 361 449 l 361 0 z "},"Ÿ":{"ha":946,"x_min":0,"x_max":0,"o":"m 304 1131 b 424 1251 369 1131 424 1183 b 304 1374 424 1319 369 1374 b 182 1251 238 1374 182 1319 b 304 1131 182 1183 238 1131 z m 642 1131 b 764 1251 708 1131 764 1183 b 642 1374 764 1319 708 1374 b 521 1251 576 1374 521 1319 b 642 1131 521 1183 576 1131 z m 583 0 l 583 449 l 963 1047 l 713 1047 l 474 660 l 235 1047 l -17 1047 l 361 449 l 361 0 z "},"Ỳ":{"ha":946,"x_min":0,"x_max":0,"o":"m 635 1179 l 343 1449 l 208 1290 l 560 1090 z m 583 0 l 583 449 l 963 1047 l 713 1047 l 474 660 l 235 1047 l -17 1047 l 361 449 l 361 0 z "},"Ź":{"ha":910,"x_min":0,"x_max":0,"o":"m 315 1179 l 390 1090 l 742 1290 l 607 1449 z m 518 861 l 18 0 l 863 0 l 863 186 l 371 186 l 871 1047 l 58 1047 l 58 861 z "},"Ž":{"ha":910,"x_min":0,"x_max":0,"o":"m 478 1096 l 764 1358 l 667 1442 l 478 1317 l 288 1442 l 192 1358 z m 518 861 l 18 0 l 863 0 l 863 186 l 371 186 l 871 1047 l 58 1047 l 58 861 z "},"Ż":{"ha":910,"x_min":0,"x_max":0,"o":"m 447 1131 b 574 1256 517 1131 574 1186 b 447 1381 574 1325 517 1381 b 322 1256 379 1381 322 1325 b 447 1131 322 1186 379 1131 z m 518 861 l 18 0 l 863 0 l 863 186 l 371 186 l 871 1047 l 58 1047 l 58 861 z "},"a":{"ha":889,"x_min":0,"x_max":0,"o":"m 597 697 l 597 614 b 381 714 556 668 476 714 b 36 349 190 714 36 557 b 381 -17 36 140 190 -17 b 597 83 476 -17 556 29 l 597 0 l 808 0 l 808 697 z m 246 349 b 425 532 246 453 322 532 b 603 349 526 532 603 453 b 425 165 603 244 526 165 b 246 349 322 165 246 244 z "},"b":{"ha":889,"x_min":0,"x_max":0,"o":"m 293 1119 l 82 1119 l 82 0 l 293 0 l 293 83 b 508 -17 333 29 413 -17 b 853 349 699 -17 853 140 b 508 714 853 557 699 714 b 293 614 413 714 333 668 z m 643 349 b 465 165 643 244 567 165 b 286 349 363 165 286 244 b 465 532 286 453 363 532 b 643 349 567 532 643 453 z "},"c":{"ha":603,"x_min":0,"x_max":0,"o":"m 407 714 b 35 349 207 714 35 560 b 407 -17 35 138 207 -17 b 553 11 463 -17 508 -7 l 553 217 b 418 169 517 189 476 169 b 238 349 322 169 238 240 b 418 528 238 457 322 528 b 551 481 476 528 517 510 l 551 686 b 407 714 508 704 463 714 z "},"d":{"ha":889,"x_min":0,"x_max":0,"o":"m 596 1119 l 596 614 b 381 714 556 668 476 714 b 36 349 190 714 36 557 b 381 -17 36 140 190 -17 b 596 83 476 -17 556 29 l 596 0 l 807 0 l 807 1119 z m 246 349 b 424 532 246 453 322 532 b 603 349 526 532 603 453 b 424 165 603 244 526 165 b 246 349 322 165 246 244 z "},"e":{"ha":782,"x_min":0,"x_max":0,"o":"m 401 156 b 232 292 321 156 253 206 l 744 292 b 396 714 758 533 624 714 b 36 349 204 714 36 560 b 401 -17 36 139 204 -17 b 718 154 536 -17 651 44 l 569 257 b 401 156 529 194 483 156 z m 397 543 b 544 424 488 543 535 483 l 239 424 b 397 543 264 499 326 543 z "},"f":{"ha":500,"x_min":0,"x_max":0,"o":"m 26 515 l 128 515 l 128 0 l 339 0 l 339 515 l 494 515 l 494 697 l 339 697 l 339 854 b 436 950 339 918 378 950 b 501 936 461 950 481 946 l 501 1117 b 397 1133 475 1128 440 1133 b 128 867 233 1133 128 1029 l 128 697 l 26 697 z "},"g":{"ha":889,"x_min":0,"x_max":0,"o":"m 808 3 l 808 697 l 597 697 l 597 614 b 381 714 556 668 476 714 b 36 349 190 714 36 557 b 381 -17 36 140 190 -17 b 597 83 476 -17 556 29 l 597 -6 b 424 -192 597 -128 522 -192 b 260 -56 333 -192 268 -140 l 51 -56 b 421 -364 60 -246 225 -364 b 808 3 626 -364 808 -224 z m 246 349 b 425 532 246 453 322 532 b 603 349 526 532 603 453 b 425 165 603 244 526 165 b 246 349 322 165 246 244 z "},"h":{"ha":824,"x_min":0,"x_max":0,"o":"m 535 400 l 535 0 l 746 0 l 746 458 b 496 714 746 610 650 714 b 293 617 404 714 335 671 l 293 1119 l 82 1119 l 82 0 l 293 0 l 293 383 b 418 525 293 465 340 525 b 535 400 493 525 535 472 z "},"i":{"ha":374,"x_min":0,"x_max":0,"o":"m 188 840 b 313 965 256 840 313 896 b 188 1090 313 1035 256 1090 b 61 965 118 1090 61 1035 b 188 840 61 896 118 840 z m 82 697 l 82 0 l 293 0 l 293 697 z "},"j":{"ha":374,"x_min":0,"x_max":0,"o":"m 188 840 b 313 965 256 840 313 896 b 188 1090 313 1035 256 1090 b 61 965 118 1090 61 1035 b 188 840 61 896 118 840 z m 82 697 l 82 -349 l 293 -349 l 293 697 z "},"k":{"ha":779,"x_min":0,"x_max":0,"o":"m 558 0 l 804 0 l 507 375 l 797 697 l 549 697 l 293 403 l 293 1119 l 82 1119 l 82 0 l 293 0 l 293 333 z "},"l":{"ha":374,"x_min":0,"x_max":0,"o":"m 82 1119 l 82 0 l 293 0 l 293 1119 z "},"m":{"ha":1254,"x_min":0,"x_max":0,"o":"m 492 714 b 293 618 403 714 333 672 l 293 697 l 82 697 l 82 0 l 293 0 l 293 383 b 413 525 293 467 336 525 b 524 400 483 525 524 474 l 524 0 l 735 0 l 735 383 b 854 525 735 467 778 525 b 965 400 924 525 965 474 l 965 0 l 1176 0 l 1176 460 b 925 714 1176 611 1075 714 b 694 608 826 714 747 668 b 492 714 653 674 583 714 z "},"n":{"ha":824,"x_min":0,"x_max":0,"o":"m 535 400 l 535 0 l 746 0 l 746 458 b 496 714 746 610 650 714 b 293 617 404 714 335 671 l 293 697 l 82 697 l 82 0 l 293 0 l 293 383 b 418 525 293 465 340 525 b 535 400 493 525 535 472 z "},"o":{"ha":824,"x_min":0,"x_max":0,"o":"m 36 349 b 413 -17 36 139 210 -17 b 788 349 615 -17 788 139 b 413 714 788 558 615 714 b 36 349 210 714 36 558 z m 233 349 b 413 532 233 453 310 532 b 590 349 514 532 590 453 b 413 165 590 244 514 165 b 233 349 310 165 233 244 z "},"p":{"ha":889,"x_min":0,"x_max":0,"o":"m 293 697 l 82 697 l 82 -349 l 293 -349 l 293 83 b 508 -17 333 29 413 -17 b 853 349 699 -17 853 140 b 508 714 853 557 699 714 b 293 614 413 714 333 668 z m 643 349 b 465 165 643 244 567 165 b 286 349 363 165 286 244 b 465 532 286 453 363 532 b 643 349 567 532 643 453 z "},"q":{"ha":889,"x_min":0,"x_max":0,"o":"m 596 697 l 596 614 b 381 714 556 668 476 714 b 36 349 190 714 36 557 b 381 -17 36 140 190 -17 b 596 83 476 -17 556 29 l 596 -349 l 807 -349 l 807 697 z m 246 349 b 424 532 246 453 322 532 b 603 349 526 532 603 453 b 424 165 603 244 526 165 b 246 349 322 165 246 244 z "},"r":{"ha":551,"x_min":0,"x_max":0,"o":"m 535 701 b 483 710 519 706 504 710 b 293 597 397 710 328 658 l 293 697 l 82 697 l 82 0 l 293 0 l 293 335 b 461 497 293 439 363 497 b 535 486 488 497 510 494 z "},"s":{"ha":597,"x_min":0,"x_max":0,"o":"m 294 -17 b 569 218 435 -17 569 75 b 238 500 569 479 238 397 b 300 557 238 533 265 557 b 378 490 340 557 367 533 l 560 536 b 303 714 528 644 431 714 b 44 488 149 714 44 608 b 374 207 44 232 374 315 b 297 142 374 164 339 142 b 188 232 247 142 204 174 l 8 178 b 294 -17 39 54 165 -17 z "},"t":{"ha":496,"x_min":0,"x_max":0,"o":"m 25 515 l 131 515 l 131 0 l 342 0 l 342 515 l 482 515 l 482 697 l 342 697 l 342 924 l 131 924 l 131 697 l 25 697 z "},"u":{"ha":785,"x_min":0,"x_max":0,"o":"m 393 164 b 279 294 321 164 279 213 l 279 697 l 68 697 l 68 289 b 393 -17 68 108 204 -17 b 717 288 581 -17 717 108 l 717 697 l 506 697 l 506 294 b 393 164 506 213 464 164 z "},"v":{"ha":771,"x_min":0,"x_max":0,"o":"m 467 0 l 786 697 l 569 697 l 389 268 l 207 697 l -15 697 l 304 0 z "},"w":{"ha":1088,"x_min":0,"x_max":0,"o":"m 1103 697 l 883 697 l 738 313 l 589 697 l 490 697 l 342 313 l 194 697 l -15 697 l 272 0 l 393 0 l 543 382 l 694 0 l 815 0 z "},"x":{"ha":772,"x_min":0,"x_max":0,"o":"m 19 697 l 265 358 l -4 0 l 224 0 l 382 219 l 540 0 l 778 0 l 510 367 l 753 697 l 526 697 l 389 508 l 258 697 z "},"y":{"ha":783,"x_min":0,"x_max":0,"o":"m 26 -349 l 247 -349 l 797 697 l 574 697 l 400 350 l 217 697 l -15 697 l 289 138 z "},"z":{"ha":706,"x_min":0,"x_max":0,"o":"m 346 515 l 10 0 l 668 0 l 668 182 l 339 182 l 675 697 l 44 697 l 44 515 z "},"á":{"ha":889,"x_min":0,"x_max":0,"o":"m 306 853 l 394 771 l 664 990 l 508 1135 z m 597 697 l 597 614 b 381 714 556 668 476 714 b 36 349 190 714 36 557 b 381 -17 36 140 190 -17 b 597 83 476 -17 556 29 l 597 0 l 808 0 l 808 697 z m 246 349 b 425 532 246 453 322 532 b 603 349 526 532 603 453 b 425 165 603 244 526 165 b 246 349 322 165 246 244 z "},"ă":{"ha":889,"x_min":0,"x_max":0,"o":"m 447 807 b 704 1060 585 807 696 914 l 551 1082 b 447 964 543 1006 499 964 b 344 1082 396 964 353 1006 l 190 1060 b 447 807 200 914 311 807 z m 597 697 l 597 614 b 381 714 556 668 476 714 b 36 349 190 714 36 557 b 381 -17 36 140 190 -17 b 597 83 476 -17 556 29 l 597 0 l 808 0 l 808 697 z m 246 349 b 425 532 246 453 322 532 b 603 349 526 532 603 453 b 425 165 603 244 526 165 b 246 349 322 165 246 244 z "},"â":{"ha":889,"x_min":0,"x_max":0,"o":"m 447 1133 l 188 861 l 286 779 l 447 914 l 608 779 l 708 861 z m 597 697 l 597 614 b 381 714 556 668 476 714 b 36 349 190 714 36 557 b 381 -17 36 140 190 -17 b 597 83 476 -17 556 29 l 597 0 l 808 0 l 808 697 z m 246 349 b 425 532 246 453 322 532 b 603 349 526 532 603 453 b 425 165 603 244 526 165 b 246 349 322 165 246 244 z "},"ä":{"ha":889,"x_min":0,"x_max":0,"o":"m 607 840 b 729 963 675 840 729 894 b 607 1083 729 1029 675 1083 b 488 963 543 1083 488 1029 b 607 840 488 894 543 840 z m 288 840 b 408 963 353 840 408 894 b 288 1083 408 1029 353 1083 b 165 963 221 1083 165 1029 b 288 840 165 894 221 840 z m 597 697 l 597 614 b 381 714 556 668 476 714 b 36 349 190 714 36 557 b 381 -17 36 140 190 -17 b 597 83 476 -17 556 29 l 597 0 l 808 0 l 808 697 z m 246 349 b 425 532 246 453 322 532 b 603 349 526 532 603 453 b 425 165 603 244 526 165 b 246 349 322 165 246 244 z "},"à":{"ha":889,"x_min":0,"x_max":0,"o":"m 589 853 l 386 1135 l 231 990 l 500 771 z m 597 697 l 597 614 b 381 714 556 668 476 714 b 36 349 190 714 36 557 b 381 -17 36 140 190 -17 b 597 83 476 -17 556 29 l 597 0 l 808 0 l 808 697 z m 246 349 b 425 532 246 453 322 532 b 603 349 526 532 603 453 b 425 165 603 244 526 165 b 246 349 322 165 246 244 z "},"ā":{"ha":889,"x_min":0,"x_max":0,"o":"m 221 861 l 675 861 l 675 1025 l 221 1025 z m 597 697 l 597 614 b 381 714 556 668 476 714 b 36 349 190 714 36 557 b 381 -17 36 140 190 -17 b 597 83 476 -17 556 29 l 597 0 l 808 0 l 808 697 z m 246 349 b 425 532 246 453 322 532 b 603 349 526 532 603 453 b 425 165 603 244 526 165 b 246 349 322 165 246 244 z "},"ą":{"ha":889,"x_min":0,"x_max":0,"o":"m 597 697 l 597 614 b 381 714 556 668 476 714 b 36 349 190 714 36 557 b 381 -17 36 140 190 -17 b 597 83 476 -17 556 29 l 597 0 b 475 -211 522 -68 475 -135 b 647 -364 475 -311 556 -364 b 832 -276 719 -364 785 -333 l 758 -165 b 685 -211 735 -194 711 -211 b 636 -162 657 -211 636 -193 b 765 0 636 -122 672 -78 l 808 0 l 808 697 z m 246 349 b 425 532 246 453 322 532 b 603 349 526 532 603 453 b 425 165 603 244 526 165 b 246 349 322 165 246 244 z "},"å":{"ha":889,"x_min":0,"x_max":0,"o":"m 640 975 b 447 1161 640 1079 556 1161 b 256 975 340 1161 256 1079 b 447 789 256 872 340 789 b 640 975 556 789 640 872 z m 374 975 b 447 1050 374 1018 406 1050 b 522 975 490 1050 522 1018 b 447 901 522 933 490 901 b 374 975 406 901 374 933 z m 597 697 l 597 614 b 381 714 556 668 476 714 b 36 349 190 714 36 557 b 381 -17 36 140 190 -17 b 597 83 476 -17 556 29 l 597 0 l 808 0 l 808 697 z m 246 349 b 425 532 246 453 322 532 b 603 349 526 532 603 453 b 425 165 603 244 526 165 b 246 349 322 165 246 244 z "},"ã":{"ha":889,"x_min":0,"x_max":0,"o":"m 350 1056 b 192 832 250 1056 194 954 l 322 825 b 375 894 325 869 344 894 b 544 822 428 894 467 822 b 703 1046 644 822 700 925 l 572 1054 b 521 985 571 1010 550 985 b 350 1056 469 985 429 1056 z m 597 697 l 597 614 b 381 714 556 668 476 714 b 36 349 190 714 36 557 b 381 -17 36 140 190 -17 b 597 83 476 -17 556 29 l 597 0 l 808 0 l 808 697 z m 246 349 b 425 532 246 453 322 532 b 603 349 526 532 603 453 b 425 165 603 244 526 165 b 246 349 322 165 246 244 z "},"æ":{"ha":1181,"x_min":0,"x_max":0,"o":"m 108 664 l 108 492 b 321 551 169 528 250 551 b 461 486 392 550 440 526 b 440 414 451 464 444 440 b 310 440 404 431 357 440 b 31 214 158 440 31 356 b 308 -17 31 71 156 -17 b 553 79 397 -17 486 15 b 800 -17 618 19 706 -17 b 1115 154 933 -17 1050 44 l 968 257 b 800 156 928 194 881 156 b 629 294 718 156 649 207 l 1142 294 b 794 714 1156 536 1021 714 b 564 629 708 714 626 683 b 329 714 513 681 433 714 b 108 664 247 714 165 692 z m 794 542 b 942 425 885 542 932 485 l 636 425 b 794 542 661 499 724 542 z m 218 218 b 339 296 218 269 271 296 b 443 269 379 296 417 286 b 468 196 449 243 457 218 b 338 140 440 167 397 140 b 218 218 271 140 218 167 z "},"ǽ":{"ha":1181,"x_min":0,"x_max":0,"o":"m 456 853 l 544 771 l 814 990 l 658 1135 z m 108 664 l 108 492 b 321 551 169 528 250 551 b 461 486 392 550 440 526 b 440 414 451 464 444 440 b 310 440 404 431 357 440 b 31 214 158 440 31 356 b 308 -17 31 71 156 -17 b 553 79 397 -17 486 15 b 800 -17 618 19 706 -17 b 1115 154 933 -17 1050 44 l 968 257 b 800 156 928 194 881 156 b 629 294 718 156 649 207 l 1142 294 b 794 714 1156 536 1021 714 b 564 629 708 714 626 683 b 329 714 513 681 433 714 b 108 664 247 714 165 692 z m 794 542 b 942 425 885 542 932 485 l 636 425 b 794 542 661 499 724 542 z m 218 218 b 339 296 218 269 271 296 b 443 269 379 296 417 286 b 468 196 449 243 457 218 b 338 140 440 167 397 140 b 218 218 271 140 218 167 z "},"ć":{"ha":603,"x_min":0,"x_max":0,"o":"m 219 853 l 308 771 l 578 990 l 422 1135 z m 407 714 b 35 349 207 714 35 560 b 407 -17 35 138 207 -17 b 553 11 463 -17 508 -7 l 553 217 b 418 169 517 189 476 169 b 238 349 322 169 238 240 b 418 528 238 457 322 528 b 551 481 476 528 517 510 l 551 686 b 407 714 508 704 463 714 z "},"č":{"ha":603,"x_min":0,"x_max":0,"o":"m 361 779 l 622 1051 l 522 1133 l 361 999 l 200 1133 l 101 1051 z m 407 714 b 35 349 207 714 35 560 b 407 -17 35 138 207 -17 b 553 11 463 -17 508 -7 l 553 217 b 418 169 517 189 476 169 b 238 349 322 169 238 240 b 418 528 238 457 322 528 b 551 481 476 528 517 510 l 551 686 b 407 714 508 704 463 714 z "},"ç":{"ha":603,"x_min":0,"x_max":0,"o":"m 407 714 b 35 349 207 714 35 560 b 407 -17 35 138 207 -17 b 553 11 463 -17 508 -7 l 553 217 b 418 169 517 189 476 169 b 238 349 322 169 238 240 b 418 528 238 457 322 528 b 551 481 476 528 517 510 l 551 686 b 407 714 508 704 463 714 z m 217 -297 l 319 -365 l 522 -154 l 356 -47 z "},"ĉ":{"ha":603,"x_min":0,"x_max":0,"o":"m 361 1133 l 101 861 l 200 779 l 361 914 l 522 779 l 622 861 z m 407 714 b 35 349 207 714 35 560 b 407 -17 35 138 207 -17 b 553 11 463 -17 508 -7 l 553 217 b 418 169 517 189 476 169 b 238 349 322 169 238 240 b 418 528 238 457 322 528 b 551 481 476 528 517 510 l 551 686 b 407 714 508 704 463 714 z "},"ċ":{"ha":603,"x_min":0,"x_max":0,"o":"m 361 840 b 488 965 431 840 488 896 b 361 1090 488 1035 431 1090 b 236 965 293 1090 236 1035 b 361 840 236 896 293 840 z m 407 714 b 35 349 207 714 35 560 b 407 -17 35 138 207 -17 b 553 11 463 -17 508 -7 l 553 217 b 418 169 517 189 476 169 b 238 349 322 169 238 240 b 418 528 238 457 322 528 b 551 481 476 528 517 510 l 551 686 b 407 714 508 704 463 714 z "},"ď":{"ha":889,"x_min":0,"x_max":0,"o":"m 860 801 l 983 767 l 1122 1081 l 932 1136 z m 596 1119 l 596 614 b 381 714 556 668 476 714 b 36 349 190 714 36 557 b 381 -17 36 140 190 -17 b 596 83 476 -17 556 29 l 596 0 l 807 0 l 807 1119 z m 246 349 b 424 532 246 453 322 532 b 603 349 526 532 603 453 b 424 165 603 244 526 165 b 246 349 322 165 246 244 z "},"đ":{"ha":897,"x_min":0,"x_max":0,"o":"m 807 1024 l 807 1119 l 596 1119 l 596 1024 l 401 1024 l 401 856 l 596 856 l 596 614 b 381 714 556 668 476 714 b 36 349 190 714 36 557 b 381 -17 36 140 190 -17 b 596 83 476 -17 556 29 l 596 0 l 807 0 l 807 856 l 889 856 l 889 1024 z m 246 349 b 424 532 246 453 322 532 b 603 349 526 532 603 453 b 424 165 603 244 526 165 b 246 349 322 165 246 244 z "},"é":{"ha":782,"x_min":0,"x_max":0,"o":"m 250 853 l 339 771 l 608 990 l 453 1135 z m 401 156 b 232 292 321 156 253 206 l 744 292 b 396 714 758 533 624 714 b 36 349 204 714 36 560 b 401 -17 36 139 204 -17 b 718 154 536 -17 651 44 l 569 257 b 401 156 529 194 483 156 z m 397 543 b 544 424 488 543 535 483 l 239 424 b 397 543 264 499 326 543 z "},"ĕ":{"ha":782,"x_min":0,"x_max":0,"o":"m 392 807 b 649 1060 529 807 640 914 l 496 1082 b 392 964 488 1006 443 964 b 289 1082 340 964 297 1006 l 135 1060 b 392 807 144 914 256 807 z m 401 156 b 232 292 321 156 253 206 l 744 292 b 396 714 758 533 624 714 b 36 349 204 714 36 560 b 401 -17 36 139 204 -17 b 718 154 536 -17 651 44 l 569 257 b 401 156 529 194 483 156 z m 397 543 b 544 424 488 543 535 483 l 239 424 b 397 543 264 499 326 543 z "},"ě":{"ha":782,"x_min":0,"x_max":0,"o":"m 392 779 l 653 1051 l 553 1133 l 392 999 l 231 1133 l 132 1051 z m 401 156 b 232 292 321 156 253 206 l 744 292 b 396 714 758 533 624 714 b 36 349 204 714 36 560 b 401 -17 36 139 204 -17 b 718 154 536 -17 651 44 l 569 257 b 401 156 529 194 483 156 z m 397 543 b 544 424 488 543 535 483 l 239 424 b 397 543 264 499 326 543 z "},"ê":{"ha":782,"x_min":0,"x_max":0,"o":"m 392 1133 l 132 861 l 231 779 l 392 914 l 553 779 l 653 861 z m 401 156 b 232 292 321 156 253 206 l 744 292 b 396 714 758 533 624 714 b 36 349 204 714 36 560 b 401 -17 36 139 204 -17 b 718 154 536 -17 651 44 l 569 257 b 401 156 529 194 483 156 z m 397 543 b 544 424 488 543 535 483 l 239 424 b 397 543 264 499 326 543 z "},"ë":{"ha":782,"x_min":0,"x_max":0,"o":"m 551 840 b 674 963 619 840 674 894 b 551 1083 674 1029 619 1083 b 432 963 488 1083 432 1029 b 551 840 432 894 488 840 z m 232 840 b 353 963 297 840 353 894 b 232 1083 353 1029 297 1083 b 110 963 165 1083 110 1029 b 232 840 110 894 165 840 z m 401 156 b 232 292 321 156 253 206 l 744 292 b 396 714 758 533 624 714 b 36 349 204 714 36 560 b 401 -17 36 139 204 -17 b 718 154 536 -17 651 44 l 569 257 b 401 156 529 194 483 156 z m 397 543 b 544 424 488 543 535 483 l 239 424 b 397 543 264 499 326 543 z "},"ė":{"ha":782,"x_min":0,"x_max":0,"o":"m 392 840 b 518 965 461 840 518 896 b 392 1090 518 1035 461 1090 b 267 965 324 1090 267 1035 b 392 840 267 896 324 840 z m 401 156 b 232 292 321 156 253 206 l 744 292 b 396 714 758 533 624 714 b 36 349 204 714 36 560 b 401 -17 36 139 204 -17 b 718 154 536 -17 651 44 l 569 257 b 401 156 529 194 483 156 z m 397 543 b 544 424 488 543 535 483 l 239 424 b 397 543 264 499 326 543 z "},"è":{"ha":782,"x_min":0,"x_max":0,"o":"m 533 853 l 331 1135 l 175 990 l 444 771 z m 401 156 b 232 292 321 156 253 206 l 744 292 b 396 714 758 533 624 714 b 36 349 204 714 36 560 b 401 -17 36 139 204 -17 b 718 154 536 -17 651 44 l 569 257 b 401 156 529 194 483 156 z m 397 543 b 544 424 488 543 535 483 l 239 424 b 397 543 264 499 326 543 z "},"ē":{"ha":782,"x_min":0,"x_max":0,"o":"m 165 861 l 619 861 l 619 1025 l 165 1025 z m 401 156 b 232 292 321 156 253 206 l 744 292 b 396 714 758 533 624 714 b 36 349 204 714 36 560 b 401 -17 36 139 204 -17 b 718 154 536 -17 651 44 l 569 257 b 401 156 529 194 483 156 z m 397 543 b 544 424 488 543 535 483 l 239 424 b 397 543 264 499 326 543 z "},"ę":{"ha":781,"x_min":0,"x_max":0,"o":"m 589 -165 b 515 -211 565 -194 542 -211 b 467 -154 486 -211 467 -190 b 619 47 467 -104 510 -36 b 717 154 656 75 690 111 l 569 257 b 401 156 529 194 482 156 b 232 292 321 156 253 206 l 744 292 b 396 714 758 533 622 714 b 35 349 204 714 35 560 b 396 -17 35 142 200 -14 b 306 -206 336 -81 306 -142 b 478 -364 306 -310 386 -364 b 663 -276 550 -364 615 -333 z m 396 543 b 543 424 486 543 535 483 l 238 424 b 396 543 263 499 325 543 z "},"ð":{"ha":824,"x_min":0,"x_max":0,"o":"m 788 386 b 560 893 788 574 699 750 l 647 929 l 647 1090 l 436 1003 b 210 1136 367 1056 290 1100 l 93 1017 b 249 924 147 989 200 957 l 131 875 l 131 714 l 382 818 b 494 690 428 776 465 733 b 411 704 469 699 440 704 b 36 349 208 704 36 558 b 413 -17 36 139 210 -17 b 788 386 615 -17 788 142 z m 233 349 b 413 532 233 453 310 532 b 590 349 514 532 590 453 b 413 165 590 244 514 165 b 233 349 310 165 233 244 z "},"ğ":{"ha":889,"x_min":0,"x_max":0,"o":"m 447 807 b 704 1060 585 807 696 914 l 551 1082 b 447 964 543 1006 499 964 b 344 1082 396 964 353 1006 l 190 1060 b 447 807 200 914 311 807 z m 808 3 l 808 697 l 597 697 l 597 614 b 381 714 556 668 476 714 b 36 349 190 714 36 557 b 381 -17 36 140 190 -17 b 597 83 476 -17 556 29 l 597 -6 b 424 -192 597 -128 522 -192 b 260 -56 333 -192 268 -140 l 51 -56 b 421 -364 60 -246 225 -364 b 808 3 626 -364 808 -224 z m 246 349 b 425 532 246 453 322 532 b 603 349 526 532 603 453 b 425 165 603 244 526 165 b 246 349 322 165 246 244 z "},"ĝ":{"ha":889,"x_min":0,"x_max":0,"o":"m 447 1133 l 188 861 l 286 779 l 447 914 l 608 779 l 708 861 z m 808 3 l 808 697 l 597 697 l 597 614 b 381 714 556 668 476 714 b 36 349 190 714 36 557 b 381 -17 36 140 190 -17 b 597 83 476 -17 556 29 l 597 -6 b 424 -192 597 -128 522 -192 b 260 -56 333 -192 268 -140 l 51 -56 b 421 -364 60 -246 225 -364 b 808 3 626 -364 808 -224 z m 246 349 b 425 532 246 453 322 532 b 603 349 526 532 603 453 b 425 165 603 244 526 165 b 246 349 322 165 246 244 z "},"ģ":{"ha":889,"x_min":0,"x_max":0,"o":"m 608 1049 l 506 1117 l 303 906 l 469 799 z m 808 3 l 808 697 l 597 697 l 597 614 b 381 714 556 668 476 714 b 36 349 190 714 36 557 b 381 -17 36 140 190 -17 b 597 83 476 -17 556 29 l 597 -6 b 424 -192 597 -128 522 -192 b 260 -56 333 -192 268 -140 l 51 -56 b 421 -364 60 -246 225 -364 b 808 3 626 -364 808 -224 z m 246 349 b 425 532 246 453 322 532 b 603 349 526 532 603 453 b 425 165 603 244 526 165 b 246 349 322 165 246 244 z "},"ġ":{"ha":889,"x_min":0,"x_max":0,"o":"m 447 840 b 574 965 517 840 574 896 b 447 1090 574 1035 517 1090 b 322 965 379 1090 322 1035 b 447 840 322 896 379 840 z m 808 3 l 808 697 l 597 697 l 597 614 b 381 714 556 668 476 714 b 36 349 190 714 36 557 b 381 -17 36 140 190 -17 b 597 83 476 -17 556 29 l 597 -6 b 424 -192 597 -128 522 -192 b 260 -56 333 -192 268 -140 l 51 -56 b 421 -364 60 -246 225 -364 b 808 3 626 -364 808 -224 z m 246 349 b 425 532 246 453 322 532 b 603 349 526 532 603 453 b 425 165 603 244 526 165 b 246 349 322 165 246 244 z "},"ß":{"ha":832,"x_min":0,"x_max":0,"o":"m 389 503 b 590 347 504 503 590 450 b 389 186 590 244 507 186 l 389 -3 b 793 340 594 -4 793 114 b 597 622 793 475 710 572 b 733 853 664 661 733 738 b 418 1136 733 1014 610 1136 b 82 800 217 1136 82 988 l 82 0 l 290 0 l 290 793 b 415 949 290 886 336 949 b 536 832 486 949 536 900 b 389 696 536 751 474 696 z "},"ħ":{"ha":824,"x_min":0,"x_max":0,"o":"m 535 400 l 535 0 l 746 0 l 746 458 b 496 714 746 610 650 714 b 293 617 404 714 335 671 l 293 856 l 494 856 l 494 1024 l 293 1024 l 293 1119 l 82 1119 l 82 1024 l 7 1024 l 7 856 l 82 856 l 82 0 l 293 0 l 293 383 b 418 525 293 465 340 525 b 535 400 493 525 535 472 z "},"ĥ":{"ha":824,"x_min":0,"x_max":0,"o":"m 414 1518 l 128 1256 l 225 1172 l 414 1297 l 604 1172 l 700 1256 z m 535 400 l 535 0 l 746 0 l 746 458 b 496 714 746 610 650 714 b 293 617 404 714 335 671 l 293 1119 l 82 1119 l 82 0 l 293 0 l 293 383 b 418 525 293 465 340 525 b 535 400 493 525 535 472 z "},"ı":{"ha":374,"x_min":0,"x_max":0,"o":"m 82 697 l 82 0 l 293 0 l 293 697 z "},"í":{"ha":374,"x_min":0,"x_max":0,"o":"m 44 853 l 133 771 l 403 990 l 247 1135 z m 82 697 l 82 0 l 293 0 l 293 697 z "},"ĭ":{"ha":374,"x_min":0,"x_max":0,"o":"m 186 807 b 443 1060 324 807 435 914 l 290 1082 b 186 964 282 1006 238 964 b 83 1082 135 964 92 1006 l -71 1060 b 186 807 -61 914 50 807 z m 82 697 l 82 0 l 293 0 l 293 697 z "},"î":{"ha":374,"x_min":0,"x_max":0,"o":"m 186 1133 l -74 861 l 25 779 l 186 914 l 347 779 l 447 861 z m 82 697 l 82 0 l 293 0 l 293 697 z "},"ï":{"ha":374,"x_min":0,"x_max":0,"o":"m 346 840 b 468 963 414 840 468 894 b 346 1083 468 1029 414 1083 b 226 963 282 1083 226 1029 b 346 840 226 894 282 840 z m 26 840 b 147 963 92 840 147 894 b 26 1083 147 1029 92 1083 b -96 963 -40 1083 -96 1029 b 26 840 -96 894 -40 840 z m 82 697 l 82 0 l 293 0 l 293 697 z "},"ì":{"ha":374,"x_min":0,"x_max":0,"o":"m 329 853 l 126 1135 l -29 990 l 240 771 z m 82 697 l 82 0 l 293 0 l 293 697 z "},"ī":{"ha":374,"x_min":0,"x_max":0,"o":"m -40 861 l 414 861 l 414 1025 l -40 1025 z m 82 697 l 82 0 l 293 0 l 293 697 z "},"į":{"ha":374,"x_min":0,"x_max":0,"o":"m 188 840 b 313 965 256 840 313 896 b 188 1090 313 1035 256 1090 b 61 965 118 1090 61 1035 b 188 840 61 896 118 840 z m 82 697 l 82 0 l 104 0 b -18 -211 29 -68 -18 -135 b 154 -364 -18 -311 63 -364 b 339 -276 226 -364 292 -333 l 265 -165 b 192 -211 242 -194 218 -211 b 143 -162 164 -211 143 -193 b 272 0 143 -122 179 -78 l 293 0 l 293 697 z "},"ĩ":{"ha":374,"x_min":0,"x_max":0,"o":"m 89 1056 b -69 832 -11 1056 -67 954 l 61 825 b 114 894 64 869 83 894 b 283 822 167 894 206 822 b 442 1046 383 822 439 925 l 311 1054 b 260 985 310 1010 289 985 b 89 1056 208 985 168 1056 z m 82 697 l 82 0 l 293 0 l 293 697 z "},"ĳ":{"ha":778,"x_min":0,"x_max":0,"o":"m 188 840 b 313 965 256 840 313 896 b 188 1090 313 1035 256 1090 b 61 965 118 1090 61 1035 b 188 840 61 896 118 840 z m 592 840 b 717 965 660 840 717 896 b 592 1090 717 1035 660 1090 b 465 965 522 1090 465 1035 b 592 840 465 896 522 840 z m 82 697 l 82 0 l 293 0 l 293 697 z m 486 697 l 486 -349 l 697 -349 l 697 697 z "},"ȷ":{"ha":374,"x_min":0,"x_max":0,"o":"m 82 697 l 82 -349 l 293 -349 l 293 697 z "},"ĵ":{"ha":374,"x_min":0,"x_max":0,"o":"m 186 1133 l -74 861 l 25 779 l 186 914 l 347 779 l 447 861 z m 82 697 l 82 -349 l 293 -349 l 293 697 z "},"ķ":{"ha":779,"x_min":0,"x_max":0,"o":"m 558 0 l 804 0 l 507 375 l 797 697 l 549 697 l 293 403 l 293 1119 l 82 1119 l 82 0 l 293 0 l 293 333 z m 292 -297 l 394 -365 l 597 -154 l 431 -47 z "},"ĸ":{"ha":775,"x_min":0,"x_max":0,"o":"m 82 697 l 82 0 l 293 0 l 293 204 l 353 271 l 546 0 l 788 0 l 503 406 l 768 697 l 526 697 l 293 435 l 293 697 z "},"ĺ":{"ha":374,"x_min":0,"x_max":0,"o":"m 56 1251 l 131 1163 l 482 1363 l 347 1521 z m 82 1119 l 82 0 l 293 0 l 293 1119 z "},"ľ":{"ha":374,"x_min":0,"x_max":0,"o":"m 344 801 l 468 767 l 607 1081 l 417 1136 z m 82 1119 l 82 0 l 293 0 l 293 1119 z "},"ļ":{"ha":374,"x_min":0,"x_max":0,"o":"m 82 1119 l 82 0 l 293 0 l 293 1119 z m 51 -297 l 154 -365 l 357 -154 l 190 -47 z "},"ŀ":{"ha":608,"x_min":0,"x_max":0,"o":"m 82 1119 l 82 0 l 293 0 l 293 1119 z m 492 435 b 618 560 561 435 618 490 b 492 685 618 629 561 685 b 367 560 424 685 367 629 b 492 435 367 490 424 435 z "},"ł":{"ha":482,"x_min":0,"x_max":0,"o":"m 18 331 l 136 399 l 136 0 l 347 0 l 347 494 l 465 563 l 465 740 l 347 672 l 347 1119 l 136 1119 l 136 578 l 18 510 z "},"ń":{"ha":824,"x_min":0,"x_max":0,"o":"m 272 853 l 361 771 l 631 990 l 475 1135 z m 535 400 l 535 0 l 746 0 l 746 458 b 496 714 746 610 650 714 b 293 617 404 714 335 671 l 293 697 l 82 697 l 82 0 l 293 0 l 293 383 b 418 525 293 465 340 525 b 535 400 493 525 535 472 z "},"ň":{"ha":824,"x_min":0,"x_max":0,"o":"m 414 779 l 675 1051 l 575 1133 l 414 999 l 253 1133 l 154 1051 z m 535 400 l 535 0 l 746 0 l 746 458 b 496 714 746 610 650 714 b 293 617 404 714 335 671 l 293 697 l 82 697 l 82 0 l 293 0 l 293 383 b 418 525 293 465 340 525 b 535 400 493 525 535 472 z "},"ņ":{"ha":824,"x_min":0,"x_max":0,"o":"m 535 400 l 535 0 l 746 0 l 746 458 b 496 714 746 610 650 714 b 293 617 404 714 335 671 l 293 697 l 82 697 l 82 0 l 293 0 l 293 383 b 418 525 293 465 340 525 b 535 400 493 525 535 472 z m 278 -297 l 381 -365 l 583 -154 l 417 -47 z "},"ñ":{"ha":824,"x_min":0,"x_max":0,"o":"m 317 1056 b 158 832 217 1056 161 954 l 289 825 b 342 894 292 869 311 894 b 511 822 394 894 433 822 b 669 1046 611 822 667 925 l 539 1054 b 488 985 538 1010 517 985 b 317 1056 436 985 396 1056 z m 535 400 l 535 0 l 746 0 l 746 458 b 496 714 746 610 650 714 b 293 617 404 714 335 671 l 293 697 l 82 697 l 82 0 l 293 0 l 293 383 b 418 525 293 465 340 525 b 535 400 493 525 535 472 z "},"ŋ":{"ha":824,"x_min":0,"x_max":0,"o":"m 535 400 l 535 -349 l 746 -349 l 746 458 b 496 714 746 610 650 714 b 293 617 404 714 335 671 l 293 697 l 82 697 l 82 0 l 293 0 l 293 383 b 418 525 293 465 340 525 b 535 400 493 525 535 472 z "},"ó":{"ha":824,"x_min":0,"x_max":0,"o":"m 269 853 l 358 771 l 628 990 l 472 1135 z m 36 349 b 413 -17 36 139 210 -17 b 788 349 615 -17 788 139 b 413 714 788 558 615 714 b 36 349 210 714 36 558 z m 233 349 b 413 532 233 453 310 532 b 590 349 514 532 590 453 b 413 165 590 244 514 165 b 233 349 310 165 233 244 z "},"ŏ":{"ha":824,"x_min":0,"x_max":0,"o":"m 411 807 b 668 1060 549 807 660 914 l 515 1082 b 411 964 507 1006 463 964 b 308 1082 360 964 317 1006 l 154 1060 b 411 807 164 914 275 807 z m 36 349 b 413 -17 36 139 210 -17 b 788 349 615 -17 788 139 b 413 714 788 558 615 714 b 36 349 210 714 36 558 z m 233 349 b 413 532 233 453 310 532 b 590 349 514 532 590 453 b 413 165 590 244 514 165 b 233 349 310 165 233 244 z "},"ô":{"ha":824,"x_min":0,"x_max":0,"o":"m 411 1133 l 151 861 l 250 779 l 411 914 l 572 779 l 672 861 z m 36 349 b 413 -17 36 139 210 -17 b 788 349 615 -17 788 139 b 413 714 788 558 615 714 b 36 349 210 714 36 558 z m 233 349 b 413 532 233 453 310 532 b 590 349 514 532 590 453 b 413 165 590 244 514 165 b 233 349 310 165 233 244 z "},"ö":{"ha":824,"x_min":0,"x_max":0,"o":"m 571 840 b 693 963 639 840 693 894 b 571 1083 693 1029 639 1083 b 451 963 507 1083 451 1029 b 571 840 451 894 507 840 z m 251 840 b 372 963 317 840 372 894 b 251 1083 372 1029 317 1083 b 129 963 185 1083 129 1029 b 251 840 129 894 185 840 z m 36 349 b 413 -17 36 139 210 -17 b 788 349 615 -17 788 139 b 413 714 788 558 615 714 b 36 349 210 714 36 558 z m 233 349 b 413 532 233 453 310 532 b 590 349 514 532 590 453 b 413 165 590 244 514 165 b 233 349 310 165 233 244 z "},"ò":{"ha":824,"x_min":0,"x_max":0,"o":"m 554 853 l 351 1135 l 196 990 l 465 771 z m 36 349 b 413 -17 36 139 210 -17 b 788 349 615 -17 788 139 b 413 714 788 558 615 714 b 36 349 210 714 36 558 z m 233 349 b 413 532 233 453 310 532 b 590 349 514 532 590 453 b 413 165 590 244 514 165 b 233 349 310 165 233 244 z "},"ő":{"ha":824,"x_min":0,"x_max":0,"o":"m 185 847 l 289 786 l 492 1018 l 322 1124 z m 471 847 l 575 786 l 778 1018 l 608 1124 z m 36 349 b 413 -17 36 139 210 -17 b 788 349 615 -17 788 139 b 413 714 788 558 615 714 b 36 349 210 714 36 558 z m 233 349 b 413 532 233 453 310 532 b 590 349 514 532 590 453 b 413 165 590 244 514 165 b 233 349 310 165 233 244 z "},"ō":{"ha":824,"x_min":0,"x_max":0,"o":"m 185 861 l 639 861 l 639 1025 l 185 1025 z m 36 349 b 413 -17 36 139 210 -17 b 788 349 615 -17 788 139 b 413 714 788 558 615 714 b 36 349 210 714 36 558 z m 233 349 b 413 532 233 453 310 532 b 590 349 514 532 590 453 b 413 165 590 244 514 165 b 233 349 310 165 233 244 z "},"ø":{"ha":824,"x_min":0,"x_max":0,"o":"m 38 349 b 104 138 38 268 63 196 l 26 63 l 117 -26 l 193 50 b 413 -17 256 8 332 -17 b 788 349 615 -17 788 139 b 719 560 788 429 763 501 l 797 635 l 708 724 l 631 647 b 413 714 568 689 493 714 b 38 349 208 714 38 558 z m 228 349 b 413 540 228 458 308 540 b 494 521 442 540 469 533 l 246 264 b 228 349 235 289 228 318 z m 597 349 b 413 157 597 239 517 157 b 329 176 382 157 354 164 l 579 435 b 597 349 590 410 597 381 z "},"ǿ":{"ha":824,"x_min":0,"x_max":0,"o":"m 271 853 l 360 771 l 629 990 l 474 1135 z m 38 349 b 104 138 38 268 63 196 l 26 63 l 117 -26 l 193 50 b 413 -17 256 8 332 -17 b 788 349 615 -17 788 139 b 719 560 788 429 763 501 l 797 635 l 708 724 l 631 647 b 413 714 568 689 493 714 b 38 349 208 714 38 558 z m 228 349 b 413 540 228 458 308 540 b 494 521 442 540 469 533 l 246 264 b 228 349 235 289 228 318 z m 597 349 b 413 157 597 239 517 157 b 329 176 382 157 354 164 l 579 435 b 597 349 590 410 597 381 z "},"õ":{"ha":824,"x_min":0,"x_max":0,"o":"m 314 1056 b 156 832 214 1056 158 954 l 286 825 b 339 894 289 869 308 894 b 508 822 392 894 431 822 b 667 1046 608 822 664 925 l 536 1054 b 485 985 535 1010 514 985 b 314 1056 433 985 393 1056 z m 36 349 b 413 -17 36 139 210 -17 b 788 349 615 -17 788 139 b 413 714 788 558 615 714 b 36 349 210 714 36 558 z m 233 349 b 413 532 233 453 310 532 b 590 349 514 532 590 453 b 413 165 590 244 514 165 b 233 349 310 165 233 244 z "},"œ":{"ha":1331,"x_min":0,"x_max":0,"o":"m 413 -17 b 685 111 525 -17 618 33 b 956 -17 750 33 847 -17 b 1267 154 1090 -17 1201 44 l 1119 257 b 951 156 1079 194 1032 156 b 782 294 869 156 801 207 l 1293 294 b 950 714 1307 536 1176 714 b 683 586 843 714 747 665 b 413 714 618 665 525 714 b 36 349 210 714 36 558 b 413 -17 36 139 210 -17 z m 946 542 b 1093 425 1036 542 1083 485 l 789 425 b 946 542 814 499 875 542 z m 233 349 b 413 532 233 453 310 532 b 590 349 514 532 590 453 b 413 165 590 244 514 165 b 233 349 310 165 233 244 z "},"ŕ":{"ha":558,"x_min":0,"x_max":0,"o":"m 172 853 l 261 771 l 531 990 l 375 1135 z m 535 701 b 483 710 519 706 504 710 b 293 597 397 710 328 658 l 293 697 l 82 697 l 82 0 l 293 0 l 293 335 b 461 497 293 439 363 497 b 535 486 488 497 510 494 z "},"ř":{"ha":558,"x_min":0,"x_max":0,"o":"m 314 779 l 575 1051 l 475 1133 l 314 999 l 153 1133 l 54 1051 z m 535 701 b 483 710 519 706 504 710 b 293 597 397 710 328 658 l 293 697 l 82 697 l 82 0 l 293 0 l 293 335 b 461 497 293 439 363 497 b 535 486 488 497 510 494 z "},"ŗ":{"ha":558,"x_min":0,"x_max":0,"o":"m 535 701 b 483 710 519 706 504 710 b 293 597 397 710 328 658 l 293 697 l 82 697 l 82 0 l 293 0 l 293 335 b 461 497 293 439 363 497 b 535 486 488 497 510 494 z m 42 -297 l 144 -365 l 347 -154 l 181 -47 z "},"ś":{"ha":597,"x_min":0,"x_max":0,"o":"m 171 853 l 260 771 l 529 990 l 374 1135 z m 294 -17 b 569 218 435 -17 569 75 b 238 500 569 479 238 397 b 300 557 238 533 265 557 b 378 490 340 557 367 533 l 560 536 b 303 714 528 644 431 714 b 44 488 149 714 44 608 b 374 207 44 232 374 315 b 297 142 374 164 339 142 b 188 232 247 142 204 174 l 8 178 b 294 -17 39 54 165 -17 z "},"š":{"ha":597,"x_min":0,"x_max":0,"o":"m 313 779 l 574 1051 l 474 1133 l 313 999 l 151 1133 l 53 1051 z m 294 -17 b 569 218 435 -17 569 75 b 238 500 569 479 238 397 b 300 557 238 533 265 557 b 378 490 340 557 367 533 l 560 536 b 303 714 528 644 431 714 b 44 488 149 714 44 608 b 374 207 44 232 374 315 b 297 142 374 164 339 142 b 188 232 247 142 204 174 l 8 178 b 294 -17 39 54 165 -17 z "},"ş":{"ha":597,"x_min":0,"x_max":0,"o":"m 294 -17 b 569 218 435 -17 569 75 b 238 500 569 479 238 397 b 300 557 238 533 265 557 b 378 490 340 557 367 533 l 560 536 b 303 714 528 644 431 714 b 44 488 149 714 44 608 b 374 207 44 232 374 315 b 297 142 374 164 339 142 b 188 232 247 142 204 174 l 8 178 b 294 -17 39 54 165 -17 z m 172 -297 l 275 -365 l 478 -154 l 311 -47 z "},"ŝ":{"ha":597,"x_min":0,"x_max":0,"o":"m 313 1133 l 53 861 l 151 779 l 313 914 l 474 779 l 574 861 z m 294 -17 b 569 218 435 -17 569 75 b 238 500 569 479 238 397 b 300 557 238 533 265 557 b 378 490 340 557 367 533 l 560 536 b 303 714 528 644 431 714 b 44 488 149 714 44 608 b 374 207 44 232 374 315 b 297 142 374 164 339 142 b 188 232 247 142 204 174 l 8 178 b 294 -17 39 54 165 -17 z "},"ș":{"ha":597,"x_min":0,"x_max":0,"o":"m 294 -17 b 569 218 435 -17 569 75 b 238 500 569 479 238 397 b 300 557 238 533 265 557 b 378 490 340 557 367 533 l 560 536 b 303 714 528 644 431 714 b 44 488 149 714 44 608 b 374 207 44 232 374 315 b 297 142 374 164 339 142 b 188 232 247 142 204 174 l 8 178 b 294 -17 39 54 165 -17 z m 172 -297 l 275 -365 l 478 -154 l 311 -47 z "},"ŧ":{"ha":490,"x_min":0,"x_max":0,"o":"m 25 429 l 25 256 l 126 256 l 126 0 l 338 0 l 338 256 l 476 256 l 476 429 l 338 429 l 338 524 l 476 524 l 476 697 l 338 697 l 338 924 l 126 924 l 126 697 l 25 697 l 25 524 l 126 524 l 126 429 z "},"ť":{"ha":496,"x_min":0,"x_max":0,"o":"m 400 801 l 524 767 l 663 1081 l 472 1136 z m 25 515 l 131 515 l 131 0 l 342 0 l 342 515 l 482 515 l 482 697 l 342 697 l 342 924 l 131 924 l 131 697 l 25 697 z "},"ţ":{"ha":496,"x_min":0,"x_max":0,"o":"m 25 515 l 131 515 l 131 0 l 342 0 l 342 515 l 482 515 l 482 697 l 342 697 l 342 924 l 131 924 l 131 697 l 25 697 z m 110 -297 l 213 -365 l 415 -154 l 249 -47 z "},"ț":{"ha":496,"x_min":0,"x_max":0,"o":"m 25 515 l 131 515 l 131 0 l 342 0 l 342 515 l 482 515 l 482 697 l 342 697 l 342 924 l 131 924 l 131 697 l 25 697 z m 110 -297 l 213 -365 l 415 -154 l 249 -47 z "},"þ":{"ha":897,"x_min":0,"x_max":0,"o":"m 293 1119 l 82 1119 l 82 -349 l 293 -349 l 293 83 b 514 -17 333 29 415 -17 b 860 349 706 -17 860 140 b 514 714 860 557 706 714 b 293 614 415 714 333 668 z m 649 349 b 467 163 649 243 571 163 b 286 349 364 163 286 243 b 467 535 286 454 364 535 b 649 349 571 535 649 454 z "},"ú":{"ha":785,"x_min":0,"x_max":0,"o":"m 250 853 l 339 771 l 608 990 l 453 1135 z m 393 164 b 279 294 321 164 279 213 l 279 697 l 68 697 l 68 289 b 393 -17 68 108 204 -17 b 717 288 581 -17 717 108 l 717 697 l 506 697 l 506 294 b 393 164 506 213 464 164 z "},"ŭ":{"ha":785,"x_min":0,"x_max":0,"o":"m 392 807 b 649 1060 529 807 640 914 l 496 1082 b 392 964 488 1006 443 964 b 289 1082 340 964 297 1006 l 135 1060 b 392 807 144 914 256 807 z m 393 164 b 279 294 321 164 279 213 l 279 697 l 68 697 l 68 289 b 393 -17 68 108 204 -17 b 717 288 581 -17 717 108 l 717 697 l 506 697 l 506 294 b 393 164 506 213 464 164 z "},"û":{"ha":785,"x_min":0,"x_max":0,"o":"m 392 1133 l 132 861 l 231 779 l 392 914 l 553 779 l 653 861 z m 393 164 b 279 294 321 164 279 213 l 279 697 l 68 697 l 68 289 b 393 -17 68 108 204 -17 b 717 288 581 -17 717 108 l 717 697 l 506 697 l 506 294 b 393 164 506 213 464 164 z "},"ü":{"ha":785,"x_min":0,"x_max":0,"o":"m 551 840 b 674 963 619 840 674 894 b 551 1083 674 1029 619 1083 b 432 963 488 1083 432 1029 b 551 840 432 894 488 840 z m 232 840 b 353 963 297 840 353 894 b 232 1083 353 1029 297 1083 b 110 963 165 1083 110 1029 b 232 840 110 894 165 840 z m 393 164 b 279 294 321 164 279 213 l 279 697 l 68 697 l 68 289 b 393 -17 68 108 204 -17 b 717 288 581 -17 717 108 l 717 697 l 506 697 l 506 294 b 393 164 506 213 464 164 z "},"ù":{"ha":785,"x_min":0,"x_max":0,"o":"m 535 853 l 332 1135 l 176 990 l 446 771 z m 393 164 b 279 294 321 164 279 213 l 279 697 l 68 697 l 68 289 b 393 -17 68 108 204 -17 b 717 288 581 -17 717 108 l 717 697 l 506 697 l 506 294 b 393 164 506 213 464 164 z "},"ű":{"ha":785,"x_min":0,"x_max":0,"o":"m 165 847 l 269 786 l 472 1018 l 303 1124 z m 451 847 l 556 786 l 758 1018 l 589 1124 z m 393 164 b 279 294 321 164 279 213 l 279 697 l 68 697 l 68 289 b 393 -17 68 108 204 -17 b 717 288 581 -17 717 108 l 717 697 l 506 697 l 506 294 b 393 164 506 213 464 164 z "},"ū":{"ha":785,"x_min":0,"x_max":0,"o":"m 165 861 l 619 861 l 619 1025 l 165 1025 z m 393 164 b 279 294 321 164 279 213 l 279 697 l 68 697 l 68 289 b 393 -17 68 108 204 -17 b 717 288 581 -17 717 108 l 717 697 l 506 697 l 506 294 b 393 164 506 213 464 164 z "},"ų":{"ha":785,"x_min":0,"x_max":0,"o":"m 417 -162 b 569 21 417 -117 467 -56 b 717 288 664 89 717 169 l 717 697 l 506 697 l 506 296 b 393 165 506 214 464 165 b 279 296 321 165 279 214 l 279 697 l 68 697 l 68 289 b 361 -15 68 118 190 -4 b 256 -210 292 -83 256 -144 b 431 -364 256 -308 336 -364 b 613 -276 500 -364 565 -333 l 539 -165 b 465 -211 517 -194 492 -211 b 417 -162 438 -211 417 -193 z "},"ů":{"ha":785,"x_min":0,"x_max":0,"o":"m 585 975 b 392 1161 585 1079 500 1161 b 200 975 285 1161 200 1079 b 392 789 200 872 285 789 b 585 975 500 789 585 872 z m 318 975 b 392 1050 318 1018 350 1050 b 467 975 435 1050 467 1018 b 392 901 467 933 435 901 b 318 975 350 901 318 933 z m 393 164 b 279 294 321 164 279 213 l 279 697 l 68 697 l 68 289 b 393 -17 68 108 204 -17 b 717 288 581 -17 717 108 l 717 697 l 506 697 l 506 294 b 393 164 506 213 464 164 z "},"ũ":{"ha":785,"x_min":0,"x_max":0,"o":"m 294 1056 b 136 832 194 1056 139 954 l 267 825 b 319 894 269 869 289 894 b 489 822 372 894 411 822 b 647 1046 589 822 644 925 l 517 1054 b 465 985 515 1010 494 985 b 294 1056 414 985 374 1056 z m 393 164 b 279 294 321 164 279 213 l 279 697 l 68 697 l 68 289 b 393 -17 68 108 204 -17 b 717 288 581 -17 717 108 l 717 697 l 506 697 l 506 294 b 393 164 506 213 464 164 z "},"ẃ":{"ha":1088,"x_min":0,"x_max":0,"o":"m 401 853 l 490 771 l 760 990 l 604 1135 z m 1103 697 l 883 697 l 738 313 l 589 697 l 490 697 l 342 313 l 194 697 l -15 697 l 272 0 l 393 0 l 543 382 l 694 0 l 815 0 z "},"ŵ":{"ha":1088,"x_min":0,"x_max":0,"o":"m 543 1133 l 283 861 l 382 779 l 543 914 l 704 779 l 804 861 z m 1103 697 l 883 697 l 738 313 l 589 697 l 490 697 l 342 313 l 194 697 l -15 697 l 272 0 l 393 0 l 543 382 l 694 0 l 815 0 z "},"ẁ":{"ha":1088,"x_min":0,"x_max":0,"o":"m 686 853 l 483 1135 l 328 990 l 597 771 z m 1103 697 l 883 697 l 738 313 l 589 697 l 490 697 l 342 313 l 194 697 l -15 697 l 272 0 l 393 0 l 543 382 l 694 0 l 815 0 z "},"ẅ":{"ha":1088,"x_min":0,"x_max":0,"o":"m 703 840 b 825 963 771 840 825 894 b 703 1083 825 1029 771 1083 b 583 963 639 1083 583 1029 b 703 840 583 894 639 840 z m 383 840 b 504 963 449 840 504 894 b 383 1083 504 1029 449 1083 b 261 963 317 1083 261 1029 b 383 840 261 894 317 840 z m 1103 697 l 883 697 l 738 313 l 589 697 l 490 697 l 342 313 l 194 697 l -15 697 l 272 0 l 393 0 l 543 382 l 694 0 l 815 0 z "},"ý":{"ha":783,"x_min":0,"x_max":0,"o":"m 250 853 l 339 771 l 608 990 l 453 1135 z m 26 -349 l 247 -349 l 797 697 l 574 697 l 400 350 l 217 697 l -15 697 l 289 138 z "},"ŷ":{"ha":783,"x_min":0,"x_max":0,"o":"m 392 1133 l 132 861 l 231 779 l 392 914 l 553 779 l 653 861 z m 26 -349 l 247 -349 l 797 697 l 574 697 l 400 350 l 217 697 l -15 697 l 289 138 z "},"ÿ":{"ha":783,"x_min":0,"x_max":0,"o":"m 551 840 b 674 963 619 840 674 894 b 551 1083 674 1029 619 1083 b 432 963 488 1083 432 1029 b 551 840 432 894 488 840 z m 232 840 b 353 963 297 840 353 894 b 232 1083 353 1029 297 1083 b 110 963 165 1083 110 1029 b 232 840 110 894 165 840 z m 26 -349 l 247 -349 l 797 697 l 574 697 l 400 350 l 217 697 l -15 697 l 289 138 z "},"ỳ":{"ha":783,"x_min":0,"x_max":0,"o":"m 533 853 l 331 1135 l 175 990 l 444 771 z m 26 -349 l 247 -349 l 797 697 l 574 697 l 400 350 l 217 697 l -15 697 l 289 138 z "},"ź":{"ha":706,"x_min":0,"x_max":0,"o":"m 207 853 l 296 771 l 565 990 l 410 1135 z m 346 515 l 10 0 l 668 0 l 668 182 l 339 182 l 675 697 l 44 697 l 44 515 z "},"ž":{"ha":706,"x_min":0,"x_max":0,"o":"m 349 779 l 610 1051 l 510 1133 l 349 999 l 188 1133 l 89 1051 z m 346 515 l 10 0 l 668 0 l 668 182 l 339 182 l 675 697 l 44 697 l 44 515 z "},"ż":{"ha":706,"x_min":0,"x_max":0,"o":"m 349 840 b 475 965 418 840 475 896 b 349 1090 475 1035 418 1090 b 224 965 281 1090 224 1035 b 349 840 224 896 281 840 z m 346 515 l 10 0 l 668 0 l 668 182 l 339 182 l 675 697 l 44 697 l 44 515 z "},"º":{"ha":599,"x_min":0,"x_max":0,"o":"m 25 794 b 300 531 25 640 151 531 b 574 794 447 531 574 640 b 300 1058 574 949 447 1058 b 25 794 151 1058 25 949 z m 186 794 b 300 913 186 861 235 913 b 414 794 365 913 414 861 b 300 678 414 728 365 678 b 186 794 235 678 186 728 z m 49 297 l 550 297 l 550 444 l 49 444 z "},"ª":{"ha":656,"x_min":0,"x_max":0,"o":"m 431 1047 l 431 992 b 275 1058 404 1026 347 1058 b 25 794 138 1058 25 946 b 275 531 25 644 138 531 b 431 597 347 531 404 564 l 431 543 l 600 543 l 600 1047 z m 194 794 b 317 918 194 864 246 918 b 436 794 385 918 436 864 b 317 672 436 726 385 672 b 194 794 246 672 194 726 z m 49 297 l 600 297 l 600 444 l 49 444 z "},"&":{"ha":1000,"x_min":0,"x_max":0,"o":"m 713 803 b 431 1064 713 963 581 1064 b 139 799 271 1064 139 953 b 224 596 139 710 181 644 l 244 572 b 29 276 139 513 29 433 b 358 -17 29 114 156 -17 b 661 118 472 -17 567 33 l 769 0 l 1032 0 l 796 257 l 986 465 l 851 588 l 672 393 l 524 556 b 713 803 624 610 713 685 z m 394 696 b 338 800 364 731 338 761 b 428 889 338 853 376 889 b 519 794 482 889 519 850 b 424 674 519 751 486 708 l 418 671 z m 231 301 b 350 457 231 379 286 421 l 539 251 b 367 165 481 194 432 165 b 231 301 285 165 231 225 z "},"`":{"ha":804,"x_min":0,"x_max":0,"o":"m 582 853 l 379 1135 l 224 990 l 493 771 z "},"´":{"ha":804,"x_min":0,"x_max":0,"o":"m 224 853 l 313 771 l 582 990 l 426 1135 z "},"ˆ":{"ha":804,"x_min":0,"x_max":0,"o":"m 401 1133 l 142 861 l 240 779 l 401 914 l 563 779 l 663 861 z "},"˜":{"ha":804,"x_min":0,"x_max":0,"o":"m 304 1056 b 146 832 204 1056 149 954 l 276 825 b 329 894 279 869 299 894 b 499 822 382 894 421 822 b 657 1046 599 822 654 925 l 526 1054 b 475 985 525 1010 504 985 b 304 1056 424 985 383 1056 z "},"¯":{"ha":804,"x_min":0,"x_max":0,"o":"m 175 861 l 629 861 l 629 1025 l 175 1025 z "},"˘":{"ha":804,"x_min":0,"x_max":0,"o":"m 401 807 b 658 1060 539 807 650 914 l 506 1082 b 401 964 497 1006 453 964 b 299 1082 350 964 307 1006 l 144 1060 b 401 807 154 914 265 807 z "},"˙":{"ha":804,"x_min":0,"x_max":0,"o":"m 401 840 b 528 965 471 840 528 896 b 401 1090 528 1035 471 1090 b 276 965 333 1090 276 1035 b 401 840 276 896 333 840 z "},"¨":{"ha":804,"x_min":0,"x_max":0,"o":"m 561 840 b 683 963 629 840 683 894 b 561 1083 683 1029 629 1083 b 442 963 497 1083 442 1029 b 561 840 442 894 497 840 z m 242 840 b 363 963 307 840 363 894 b 242 1083 363 1029 307 1083 b 119 963 175 1083 119 1029 b 242 840 119 894 175 840 z "},"˚":{"ha":804,"x_min":0,"x_max":0,"o":"m 594 975 b 401 1161 594 1079 510 1161 b 210 975 294 1161 210 1079 b 401 789 210 872 294 789 b 594 975 510 789 594 872 z m 328 975 b 401 1050 328 1018 360 1050 b 476 975 444 1050 476 1018 b 401 901 476 933 444 901 b 328 975 360 901 328 933 z "},"˝":{"ha":804,"x_min":0,"x_max":0,"o":"m 106 847 l 210 786 l 413 1018 l 243 1124 z m 392 847 l 496 786 l 699 1018 l 529 1124 z "},"ˇ":{"ha":804,"x_min":0,"x_max":0,"o":"m 401 779 l 663 1051 l 563 1133 l 401 999 l 240 1133 l 142 1051 z "},"":{"ha":804,"x_min":0,"x_max":0,"o":"m 260 -297 l 363 -365 l 565 -154 l 399 -47 z "},"¸":{"ha":804,"x_min":0,"x_max":0,"o":"m 260 -297 l 363 -365 l 565 -154 l 399 -47 z "},"˛":{"ha":804,"x_min":0,"x_max":0,"o":"m 428 15 b 289 -211 343 -58 289 -129 b 461 -364 289 -311 369 -364 b 646 -276 533 -364 599 -333 l 572 -165 b 499 -211 549 -194 525 -211 b 450 -162 471 -211 450 -193 b 579 0 450 -122 486 -78 z "},".":{"ha":400,"x_min":0,"x_max":0,"o":"m 64 125 b 200 -11 64 47 124 -11 b 336 125 276 -11 336 47 b 200 260 336 201 276 260 b 64 125 124 260 64 201 z "},",":{"ha":400,"x_min":0,"x_max":0,"o":"m 142 267 l 32 -168 l 164 -210 l 371 192 z "},":":{"ha":400,"x_min":0,"x_max":0,"o":"m 64 543 b 200 407 64 465 124 407 b 336 543 276 407 336 465 b 200 678 336 619 276 678 b 64 543 124 678 64 619 z m 64 125 b 200 -11 64 47 124 -11 b 336 125 276 -11 336 47 b 200 260 336 201 276 260 b 64 125 124 260 64 201 z "},";":{"ha":400,"x_min":0,"x_max":0,"o":"m 64 543 b 200 407 64 465 124 407 b 336 543 276 407 336 465 b 200 678 336 619 276 678 b 64 543 124 678 64 619 z m 142 267 l 32 -168 l 164 -210 l 371 192 z "},"…":{"ha":1181,"x_min":0,"x_max":0,"o":"m 844 125 b 981 -11 844 47 904 -11 b 1117 125 1057 -11 1117 47 b 981 260 1117 201 1057 260 b 844 125 904 260 844 201 z m 454 125 b 590 -11 454 47 514 -11 b 726 125 667 -11 726 47 b 590 260 726 201 667 260 b 454 125 514 260 454 201 z m 64 125 b 200 -11 64 47 124 -11 b 336 125 276 -11 336 47 b 200 260 336 201 276 260 b 64 125 124 260 64 201 z "},"!":{"ha":400,"x_min":0,"x_max":0,"o":"m 89 333 l 311 333 l 311 1047 l 89 1047 z m 64 125 b 200 -11 64 47 124 -11 b 336 125 276 -11 336 47 b 200 260 336 201 276 260 b 64 125 124 260 64 201 z "},"¡":{"ha":400,"x_min":0,"x_max":0,"o":"m 336 589 b 200 725 336 667 276 725 b 64 589 124 725 64 667 b 200 454 64 513 124 454 b 336 589 276 454 336 513 z m 311 381 l 89 381 l 89 -333 l 311 -333 z "},"?":{"ha":668,"x_min":0,"x_max":0,"o":"m 276 511 b 632 821 276 633 632 563 b 344 1064 632 965 507 1064 b 36 785 174 1064 39 947 l 246 785 b 342 893 243 856 288 893 b 422 819 393 893 422 860 b 75 510 422 690 75 760 b 333 288 75 371 194 288 b 597 522 485 288 593 394 l 404 522 b 338 451 401 476 379 451 b 276 511 303 451 276 475 z m 201 117 b 331 -11 201 43 260 -11 b 460 117 403 -11 460 43 b 331 244 460 189 403 244 b 201 117 260 244 201 189 z "},"¿":{"ha":668,"x_min":0,"x_max":0,"o":"m 467 596 b 338 724 467 669 408 724 b 208 596 265 724 208 669 b 338 468 208 524 265 468 b 467 596 408 468 467 524 z m 392 201 b 36 -108 392 79 36 150 b 324 -351 36 -253 161 -351 b 632 -72 494 -351 629 -235 l 422 -72 b 326 -181 425 -143 381 -181 b 246 -107 275 -181 246 -147 b 593 203 246 22 593 -47 b 335 425 593 342 474 425 b 71 190 183 425 75 318 l 264 190 b 331 261 267 236 289 261 b 392 201 365 261 392 238 z "},"‘":{"ha":400,"x_min":0,"x_max":0,"o":"m 258 588 l 368 1022 l 236 1064 l 29 663 z "},"’":{"ha":400,"x_min":0,"x_max":0,"o":"m 142 1063 l 32 628 l 164 586 l 371 988 z "},"“":{"ha":733,"x_min":0,"x_max":0,"o":"m 592 588 l 701 1022 l 569 1064 l 363 663 z m 258 588 l 368 1022 l 236 1064 l 29 663 z "},"”":{"ha":733,"x_min":0,"x_max":0,"o":"m 142 1063 l 32 628 l 164 586 l 371 988 z m 475 1063 l 365 628 l 497 586 l 704 988 z "},"‚":{"ha":400,"x_min":0,"x_max":0,"o":"m 142 288 l 32 -147 l 164 -189 l 371 213 z "},"„":{"ha":733,"x_min":0,"x_max":0,"o":"m 142 288 l 32 -147 l 164 -189 l 371 213 z m 475 288 l 365 -147 l 497 -189 l 704 213 z "},"‹":{"ha":442,"x_min":0,"x_max":0,"o":"m 32 376 l 264 58 l 410 160 l 257 376 l 410 593 l 264 694 z "},"›":{"ha":442,"x_min":0,"x_max":0,"o":"m 410 376 l 178 694 l 32 593 l 185 376 l 32 160 l 178 58 z "},"«":{"ha":769,"x_min":0,"x_max":0,"o":"m 32 376 l 264 58 l 410 160 l 257 376 l 410 593 l 264 694 z m 360 376 l 592 58 l 738 160 l 585 376 l 738 593 l 592 694 z "},"»":{"ha":769,"x_min":0,"x_max":0,"o":"m 738 376 l 506 694 l 360 593 l 513 376 l 360 160 l 506 58 z m 410 376 l 178 694 l 32 593 l 185 376 l 32 160 l 178 58 z "},"/":{"ha":765,"x_min":0,"x_max":0,"o":"m 550 1119 l 4 -208 l 215 -208 l 761 1119 z "},"\\":{"ha":765,"x_min":0,"x_max":0,"o":"m 215 1119 l 4 1119 l 550 -208 l 761 -208 z "},"|":{"ha":411,"x_min":0,"x_max":0,"o":"m 106 1119 l 106 -208 l 306 -208 l 306 1119 z "},"·":{"ha":400,"x_min":0,"x_max":0,"o":"m 64 376 b 200 240 64 299 124 240 b 336 376 276 240 336 299 b 200 511 336 453 276 511 b 64 376 124 511 64 453 z "},"•":{"ha":703,"x_min":0,"x_max":0,"o":"m 351 664 b 64 376 194 664 64 536 b 351 89 64 218 194 89 b 639 376 511 89 639 218 b 351 664 639 536 511 664 z "},"-":{"ha":494,"x_min":0,"x_max":0,"o":"m 64 479 l 64 274 l 431 274 l 431 479 z "},"–":{"ha":717,"x_min":0,"x_max":0,"o":"m 64 475 l 64 282 l 653 282 l 653 475 z "},"—":{"ha":1142,"x_min":0,"x_max":0,"o":"m 64 475 l 64 282 l 1078 282 l 1078 475 z "},"(":{"ha":543,"x_min":0,"x_max":0,"o":"m 74 456 b 344 -242 74 179 186 -35 l 515 -147 b 278 456 347 76 278 236 b 515 1060 278 675 347 835 l 344 1153 b 74 456 186 946 74 722 z "},")":{"ha":543,"x_min":0,"x_max":0,"o":"m 469 456 b 199 1153 469 722 357 946 l 28 1060 b 265 456 196 835 265 675 b 28 -147 265 236 196 76 l 199 -242 b 469 456 357 -35 469 179 z "},"[":{"ha":547,"x_min":0,"x_max":0,"o":"m 286 956 l 524 956 l 524 1119 l 88 1119 l 88 -208 l 524 -208 l 524 -44 l 286 -44 z "},"]":{"ha":547,"x_min":0,"x_max":0,"o":"m 261 956 l 261 -44 l 24 -44 l 24 -208 l 460 -208 l 460 1119 l 24 1119 l 24 956 z "},"{":{"ha":624,"x_min":0,"x_max":0,"o":"m 32 365 l 93 365 b 199 247 154 365 199 336 l 199 -3 b 396 -208 199 -140 272 -208 l 601 -208 l 601 -46 l 456 -46 b 393 32 413 -46 393 -24 l 393 271 b 239 456 393 390 324 451 b 393 640 324 460 393 521 l 393 879 b 456 957 393 935 413 957 l 601 957 l 601 1119 l 396 1119 b 199 914 272 1119 199 1051 l 199 664 b 93 546 199 575 154 546 l 32 546 z "},"}":{"ha":624,"x_min":0,"x_max":0,"o":"m 592 365 l 592 546 l 531 546 b 425 664 469 546 425 575 l 425 914 b 228 1119 425 1051 351 1119 l 22 1119 l 22 957 l 168 957 b 231 879 211 957 231 935 l 231 640 b 385 456 231 521 300 460 b 231 271 300 451 231 390 l 231 32 b 168 -46 231 -24 211 -46 l 22 -46 l 22 -208 l 228 -208 b 425 -3 351 -208 425 -140 l 425 247 b 531 365 425 336 469 365 z "},"*":{"ha":731,"x_min":0,"x_max":0,"o":"m 303 393 l 429 393 l 429 610 l 622 500 l 686 610 l 492 721 l 686 832 l 622 940 l 429 831 l 429 1047 l 303 1047 l 303 831 l 110 940 l 44 832 l 239 721 l 44 610 l 110 500 l 303 610 z "},"†":{"ha":603,"x_min":0,"x_max":0,"o":"m 224 390 l 379 390 l 379 711 l 560 711 l 560 867 l 379 867 l 379 1047 l 224 1047 l 224 867 l 43 867 l 43 711 l 224 711 z "},"‡":{"ha":603,"x_min":0,"x_max":0,"o":"m 224 390 l 379 390 l 379 510 l 560 510 l 560 657 l 379 657 l 379 781 l 560 781 l 560 926 l 379 926 l 379 1047 l 224 1047 l 224 926 l 43 926 l 43 781 l 224 781 l 224 657 l 43 657 l 43 510 l 224 510 z "},"§":{"ha":717,"x_min":0,"x_max":0,"o":"m 63 343 b 147 143 63 256 97 194 b 310 32 194 94 256 61 b 450 -103 386 -11 450 -44 b 353 -196 450 -160 411 -196 b 247 -111 303 -196 268 -162 l 83 -203 b 353 -378 121 -300 226 -378 b 639 -112 514 -378 639 -267 b 506 111 639 -8 581 63 b 654 343 597 156 654 244 b 567 546 654 432 618 494 b 407 654 519 593 460 625 b 267 789 331 696 267 731 b 363 882 267 846 306 882 b 468 797 414 882 449 849 l 633 889 b 364 1064 596 986 490 1064 b 78 799 203 1064 78 953 b 211 575 78 694 136 624 b 63 343 119 531 63 442 z m 358 231 b 278 264 326 231 299 243 b 246 343 258 283 246 311 b 358 456 246 408 296 456 b 438 422 389 456 418 443 b 471 343 458 403 471 375 b 358 231 471 278 419 231 z "},"¶":{"ha":840,"x_min":0,"x_max":0,"o":"m 540 -349 l 692 -349 l 692 890 l 825 890 l 825 1047 l 540 1047 z m 303 -349 l 453 -349 l 453 1047 l 303 1047 b 4 783 168 1047 4 969 b 303 517 4 597 168 517 z "},"^":{"ha":796,"x_min":0,"x_max":0,"o":"m 314 1047 l 38 613 l 243 613 l 399 864 l 553 613 l 758 613 l 483 1047 z "},"~":{"ha":708,"x_min":0,"x_max":0,"o":"m 436 454 b 242 539 382 454 340 539 b 64 292 131 539 64 429 l 219 292 b 272 371 219 343 242 371 b 467 288 326 371 368 288 b 644 533 578 288 644 397 l 489 533 b 436 454 489 482 468 454 z "},"_":{"ha":693,"x_min":0,"x_max":0,"o":"m 46 -89 l 46 -271 l 647 -271 l 647 -89 z "},"'":{"ha":326,"x_min":0,"x_max":0,"o":"m 83 601 l 243 601 l 285 1047 l 42 1047 z "},"\"":{"ha":646,"x_min":0,"x_max":0,"o":"m 83 601 l 243 601 l 285 1047 l 42 1047 z m 403 601 l 563 601 l 604 1047 l 361 1047 z "},"@":{"ha":1429,"x_min":0,"x_max":0,"o":"m 658 24 b 876 135 754 24 842 72 b 1078 36 911 85 974 36 b 1390 435 1263 36 1390 190 b 731 1046 1390 783 1104 1046 b 39 356 338 1046 39 738 b 751 -326 39 -60 386 -326 b 1176 -199 924 -326 1075 -268 l 1100 -56 b 749 -165 1011 -117 889 -165 b 206 357 497 -165 206 18 b 732 885 206 671 438 885 b 1224 424 1008 885 1224 708 b 1111 203 1224 296 1175 203 b 1049 283 1078 203 1049 219 l 1049 667 l 860 667 l 860 588 b 658 681 824 638 747 681 b 349 353 485 681 349 539 b 658 24 349 169 485 24 z m 854 351 b 701 193 854 261 790 193 b 546 351 613 193 546 261 b 701 511 546 442 613 511 b 854 351 790 511 854 442 z "},"©":{"ha":1150,"x_min":0,"x_max":0,"o":"m 39 524 b 575 -17 39 225 278 -17 b 1111 524 872 -17 1111 225 b 575 1064 1111 822 872 1064 b 39 524 278 1064 39 822 z m 1019 524 b 575 69 1019 274 822 69 b 131 524 328 69 131 274 b 575 978 131 775 328 978 b 1019 524 822 978 1019 775 z m 596 844 b 267 522 408 844 267 703 b 596 200 267 343 408 200 b 764 242 653 200 711 214 l 764 418 b 607 358 725 382 669 358 b 435 522 507 358 435 425 b 607 688 435 619 507 688 b 764 628 669 688 725 664 l 764 804 b 596 844 713 832 653 844 z "},"®":{"ha":774,"x_min":0,"x_max":0,"o":"m 388 1064 b 56 732 206 1064 56 914 b 388 401 56 550 206 401 b 718 732 569 401 718 550 b 388 1064 718 914 569 1064 z m 388 469 b 124 732 243 469 124 588 b 388 996 124 876 243 996 b 650 732 532 996 650 876 b 388 469 650 588 532 469 z m 351 678 l 364 678 l 422 572 l 531 572 l 453 694 b 519 793 488 710 519 742 b 393 903 519 857 471 903 l 260 903 l 260 572 l 351 572 z m 351 821 l 382 821 b 425 785 408 821 425 808 b 382 749 425 764 408 749 l 351 749 z "},"™":{"ha":1003,"x_min":0,"x_max":0,"o":"m 11 931 l 132 931 l 132 568 l 264 568 l 264 931 l 385 931 l 385 1047 l 11 1047 z m 725 568 l 821 804 l 874 568 l 999 568 l 893 1047 l 803 1047 l 694 774 l 586 1047 l 496 1047 l 390 568 l 517 568 l 568 803 l 665 568 z "},"#":{"ha":1017,"x_min":0,"x_max":0,"o":"m 565 0 l 661 263 l 843 263 l 894 413 l 715 413 l 800 643 l 939 643 l 992 793 l 854 793 l 947 1047 l 775 1047 l 682 793 l 528 793 l 621 1047 l 449 1047 l 356 793 l 174 793 l 122 643 l 301 643 l 217 413 l 78 413 l 25 263 l 163 263 l 67 0 l 239 0 l 335 263 l 489 263 l 393 0 z m 389 413 l 474 643 l 628 643 l 543 413 z "},"°":{"ha":529,"x_min":0,"x_max":0,"o":"m 24 822 b 264 582 24 686 128 582 b 506 822 400 582 506 686 b 264 1064 506 960 400 1064 b 24 822 128 1064 24 960 z m 360 822 b 264 728 360 769 318 728 b 169 822 210 728 169 769 b 264 918 169 876 211 918 b 360 822 318 918 360 876 z "},"ƒ":{"ha":858,"x_min":0,"x_max":0,"o":"m 158 396 l 310 396 l 236 131 b 97 11 215 57 172 11 b -4 42 57 11 21 26 l -4 -143 b 128 -172 28 -158 71 -172 b 443 110 300 -172 399 -54 l 522 396 l 721 396 l 721 574 l 571 574 l 622 761 b 758 881 643 836 685 881 b 863 850 799 881 836 867 l 863 1035 b 733 1064 829 1053 785 1064 b 415 782 558 1064 460 946 l 358 574 l 158 574 z "},"€":{"ha":914,"x_min":0,"x_max":0,"o":"m 25 331 l 153 331 b 649 -17 228 128 417 -17 b 879 40 729 -17 813 1 l 879 268 b 651 178 824 213 740 178 b 382 331 533 178 436 238 l 581 331 l 636 482 l 335 482 b 333 524 333 496 333 510 b 336 568 333 539 335 554 l 665 568 l 722 718 l 382 718 b 650 871 438 813 532 871 b 879 781 739 871 822 836 l 879 1008 b 650 1065 810 1049 729 1065 b 154 718 417 1065 228 921 l 25 718 l 25 568 l 121 568 b 119 524 119 554 119 539 b 121 482 119 510 119 496 l 25 482 z "},"$":{"ha":849,"x_min":0,"x_max":0,"o":"m 822 317 b 517 610 822 514 664 571 l 517 881 b 658 771 576 863 626 825 l 789 903 b 517 1061 724 988 632 1044 l 517 1188 l 364 1188 l 364 1058 b 81 749 194 1028 81 907 b 364 467 81 563 224 506 l 364 169 b 147 335 271 189 197 247 l 1 210 b 364 -14 69 86 207 3 l 364 -156 l 517 -156 l 517 -8 b 822 317 692 25 822 150 z m 264 764 b 364 885 264 825 303 867 l 364 654 b 264 764 304 678 264 708 z m 631 304 b 517 171 631 239 588 190 l 517 424 b 631 304 583 400 631 367 z "},"¢":{"ha":661,"x_min":0,"x_max":0,"o":"m 328 -156 l 481 -156 l 481 -15 b 613 17 529 -10 575 3 l 613 214 b 481 163 578 189 533 169 l 481 535 b 611 483 532 528 576 508 l 611 681 b 481 713 574 694 528 707 l 481 846 l 328 846 l 328 700 b 38 349 161 658 38 522 b 328 -3 38 175 161 39 z m 218 349 b 328 515 218 426 260 486 l 328 182 b 218 349 260 211 218 271 z "},"£":{"ha":825,"x_min":0,"x_max":0,"o":"m 268 89 b 592 -15 372 89 451 -15 b 840 164 707 -15 804 69 l 699 275 b 571 175 671 210 626 175 b 428 225 521 175 476 200 b 397 403 422 297 411 356 l 592 403 l 592 565 l 329 565 b 285 722 304 615 285 660 b 443 882 285 808 343 882 b 615 715 533 882 590 824 l 804 786 b 442 1065 756 960 631 1065 b 69 721 222 1065 69 907 b 107 565 69 658 85 610 l 26 565 l 26 403 l 192 403 b 226 278 207 367 219 326 b -1 100 121 269 32 189 l 140 -11 b 268 89 168 54 211 89 z "},"¥":{"ha":925,"x_min":0,"x_max":0,"o":"m 60 279 l 358 279 l 358 0 l 567 0 l 567 279 l 865 279 l 865 447 l 572 447 l 622 533 l 865 533 l 865 701 l 721 701 l 924 1047 l 699 1047 l 463 646 l 228 1047 l 1 1047 l 204 701 l 60 701 l 60 533 l 303 533 l 353 447 l 60 447 z "},"฿":{"ha":872,"x_min":0,"x_max":0,"o":"m 646 553 b 792 774 726 586 792 660 b 519 1043 792 915 692 1021 l 519 1188 l 374 1188 l 374 1047 l 97 1047 l 97 0 l 374 0 l 374 -156 l 519 -156 l 519 1 b 842 297 725 17 842 133 b 646 553 842 428 761 519 z m 288 875 l 374 875 l 374 601 l 288 601 z m 617 738 b 519 608 617 671 579 625 l 519 868 b 617 738 579 850 617 804 z m 288 456 l 374 456 l 374 172 l 288 172 z m 644 315 b 519 175 644 244 600 189 l 519 453 b 644 315 599 439 644 386 z "},"₫":{"ha":864,"x_min":0,"x_max":0,"o":"m 543 1047 l 543 968 l 381 968 l 381 808 l 543 808 l 543 640 b 357 725 510 688 444 725 b 54 410 188 725 54 590 b 357 94 54 229 188 94 b 543 183 444 94 507 135 l 543 108 l 738 108 l 738 808 l 835 808 l 835 968 l 738 968 l 738 1047 z m 249 410 b 400 564 249 499 313 564 b 549 410 488 564 549 499 b 400 256 549 321 488 256 b 249 410 313 256 249 321 z m 738 0 l 67 0 l 67 -162 l 738 -162 z "},"₣":{"ha":794,"x_min":0,"x_max":0,"o":"m 139 0 l 358 0 l 358 190 l 526 190 l 526 353 l 358 353 l 358 439 l 728 439 l 728 625 l 358 625 l 358 861 l 738 861 l 738 1047 l 139 1047 l 139 353 l 42 353 l 42 190 l 139 190 z "},"₦":{"ha":1038,"x_min":0,"x_max":0,"o":"m 42 317 l 139 317 l 139 0 l 347 0 l 347 649 l 719 0 l 899 0 l 899 317 l 996 317 l 996 485 l 899 485 l 899 571 l 996 571 l 996 738 l 899 738 l 899 1047 l 690 1047 l 690 413 l 333 1047 l 139 1047 l 139 738 l 42 738 l 42 571 l 139 571 l 139 485 l 42 485 z "},"₧":{"ha":979,"x_min":0,"x_max":0,"o":"m 356 343 l 456 343 b 846 613 668 343 813 444 l 950 613 l 950 779 l 846 779 b 456 1047 811 947 668 1047 l 139 1047 l 139 779 l 42 779 l 42 613 l 139 613 l 139 0 l 356 0 z m 356 885 l 461 885 b 638 779 556 885 613 844 l 356 779 z m 356 507 l 356 613 l 638 613 b 461 507 614 547 556 507 z "},"₱":{"ha":960,"x_min":0,"x_max":0,"o":"m 363 315 l 435 315 b 781 463 590 315 711 368 l 931 463 l 931 629 l 842 629 b 844 681 843 646 844 663 b 843 715 844 693 844 704 l 931 715 l 931 883 l 792 883 b 435 1047 725 989 600 1047 l 139 1047 l 139 883 l 42 883 l 42 715 l 139 715 l 139 629 l 42 629 l 42 463 l 139 463 l 139 0 l 363 0 z m 363 864 l 422 864 b 614 681 544 864 614 806 b 422 499 614 558 544 499 l 363 499 z "},"₽":{"ha":861,"x_min":0,"x_max":0,"o":"m 42 301 l 42 140 l 139 140 l 139 0 l 363 0 l 363 140 l 521 140 l 521 301 l 363 301 l 363 388 l 449 388 b 836 717 676 388 836 511 b 449 1047 836 924 675 1047 l 139 1047 l 139 560 l 42 560 l 42 388 l 139 388 l 139 301 z m 444 865 b 614 717 544 865 614 814 b 444 560 614 619 544 560 l 363 560 l 363 865 z "},"₹":{"ha":786,"x_min":0,"x_max":0,"o":"m 46 392 l 164 392 l 460 0 l 726 0 l 404 411 b 633 635 524 446 607 524 l 740 635 l 740 799 l 629 799 b 582 885 619 832 603 860 l 740 885 l 740 1047 l 46 1047 l 46 885 l 253 885 b 414 799 329 885 386 851 l 46 799 l 46 635 l 417 635 b 253 549 389 581 331 549 l 46 549 z "},"₺":{"ha":831,"x_min":0,"x_max":0,"o":"m 125 0 l 418 0 b 807 436 667 0 807 140 l 585 436 b 400 186 585 265 521 186 l 338 186 l 338 338 l 467 428 l 467 606 l 338 515 l 338 610 l 467 700 l 467 876 l 338 786 l 338 1047 l 125 1047 l 125 660 l 31 593 l 31 417 l 125 483 l 125 389 l 31 322 l 31 144 l 125 211 z "},"₩":{"ha":1157,"x_min":0,"x_max":0,"o":"m 38 317 l 169 317 l 214 0 l 463 0 l 581 663 l 700 0 l 944 0 l 989 317 l 1121 317 l 1121 485 l 1013 485 l 1025 571 l 1121 571 l 1121 738 l 1049 738 l 1092 1047 l 892 1047 l 796 318 l 668 1047 l 496 1047 l 368 318 l 272 1047 l 67 1047 l 110 738 l 38 738 l 38 571 l 133 571 l 146 485 l 38 485 z "},"⁰":{"ha":539,"x_min":0,"x_max":0,"o":"m 25 758 b 269 460 25 581 132 460 b 514 758 407 460 514 581 b 269 1057 514 936 407 1057 b 25 758 132 1057 25 936 z m 174 758 b 269 917 174 847 210 917 b 365 758 329 917 365 847 b 269 600 365 669 329 600 b 174 758 210 600 174 669 z "},"¹":{"ha":440,"x_min":0,"x_max":0,"o":"m 36 469 l 421 469 l 421 599 l 307 599 l 307 1047 l 99 1047 l 17 918 l 150 918 l 150 599 l 36 599 z "},"²":{"ha":463,"x_min":0,"x_max":0,"o":"m 169 842 b 228 908 169 874 189 908 b 278 857 260 908 278 886 b 217 738 278 819 251 785 l 6 469 l 451 469 l 451 599 l 283 599 l 333 661 b 439 874 383 728 439 793 b 231 1057 439 981 353 1057 b 0 842 99 1057 13 958 z "},"³":{"ha":472,"x_min":0,"x_max":0,"o":"m 238 710 b 311 651 278 710 311 690 b 238 588 311 614 279 588 b 158 667 189 588 160 621 l 7 667 b 238 460 10 543 101 460 b 456 644 369 460 456 542 b 383 771 456 703 428 744 b 438 882 408 792 438 831 b 244 1057 438 986 364 1057 b 31 865 121 1057 40 971 l 178 865 b 239 925 182 900 203 925 b 293 874 274 925 293 903 b 236 822 293 838 265 822 l 194 822 l 194 710 z "},"⁴":{"ha":531,"x_min":0,"x_max":0,"o":"m 422 469 l 422 599 l 519 599 l 519 719 l 422 719 l 422 1047 l 251 1047 l 11 715 l 11 599 l 282 599 l 282 469 z m 153 719 l 282 906 l 282 719 z "},"⁵":{"ha":425,"x_min":0,"x_max":0,"o":"m 165 597 b 26 667 111 597 60 628 l -7 522 b 171 460 42 483 104 460 b 410 679 310 460 410 560 b 215 864 410 779 340 864 b 201 863 211 864 207 864 l 213 918 l 390 918 l 390 1047 l 104 1047 l 43 732 b 146 756 79 747 114 756 b 258 675 214 756 258 722 b 165 597 258 628 219 597 z "},"⁶":{"ha":486,"x_min":0,"x_max":0,"o":"m 468 681 b 286 886 468 790 393 875 l 411 1047 l 236 1047 l 100 869 b 17 679 39 790 17 742 b 243 460 17 556 115 460 b 468 681 372 460 468 556 z m 244 764 b 328 679 290 764 328 726 b 244 596 328 635 290 596 b 160 679 196 596 160 635 b 244 764 160 726 196 764 z "},"⁷":{"ha":499,"x_min":0,"x_max":0,"o":"m 500 1047 l 26 1047 l 26 918 l 279 918 l 56 469 l 222 469 z "},"⁸":{"ha":467,"x_min":0,"x_max":0,"o":"m 232 1057 b 40 890 131 1057 40 990 b 99 771 40 836 68 796 b 10 636 65 756 10 710 b 232 460 10 531 110 460 b 456 636 357 460 456 531 b 367 771 456 710 400 756 b 426 890 399 796 426 836 b 232 1057 426 990 335 1057 z m 232 832 b 175 888 199 832 175 854 b 232 943 175 921 199 943 b 290 888 267 943 290 921 b 232 832 290 854 267 832 z m 232 581 b 165 646 194 581 165 607 b 232 711 165 685 194 711 b 301 646 272 711 301 685 b 232 581 301 607 272 581 z "},"⁹":{"ha":486,"x_min":0,"x_max":0,"o":"m 17 836 b 199 631 17 726 92 642 l 75 471 l 250 471 l 386 649 b 469 838 446 728 469 776 b 243 1058 469 963 371 1058 b 17 836 113 1058 17 963 z m 242 754 b 158 838 194 754 158 790 b 242 922 158 882 194 922 b 326 838 290 922 326 882 b 242 754 326 790 290 754 z "},"₀":{"ha":539,"x_min":0,"x_max":0,"o":"m 25 94 b 269 -204 25 -83 132 -204 b 514 94 407 -204 514 -83 b 269 393 514 272 407 393 b 25 94 132 393 25 272 z m 174 94 b 269 253 174 183 210 253 b 365 94 329 253 365 183 b 269 -64 365 6 329 -64 b 174 94 210 -64 174 6 z "},"₁":{"ha":440,"x_min":0,"x_max":0,"o":"m 36 -194 l 421 -194 l 421 -65 l 307 -65 l 307 383 l 99 383 l 17 254 l 150 254 l 150 -65 l 36 -65 z "},"₂":{"ha":463,"x_min":0,"x_max":0,"o":"m 169 178 b 228 244 169 210 189 244 b 278 193 260 244 278 222 b 217 74 278 156 251 121 l 6 -194 l 451 -194 l 451 -65 l 283 -65 l 333 -3 b 439 210 383 64 439 129 b 231 393 439 317 353 393 b 0 178 99 393 13 294 z "},"₃":{"ha":472,"x_min":0,"x_max":0,"o":"m 238 46 b 311 -12 278 46 311 26 b 238 -76 311 -50 279 -76 b 158 3 189 -76 160 -43 l 7 3 b 238 -204 10 -121 101 -204 b 456 -19 369 -204 456 -122 b 383 107 456 39 428 81 b 438 218 408 128 438 167 b 244 393 438 322 364 393 b 31 201 121 393 40 307 l 178 201 b 239 261 182 236 203 261 b 293 210 274 261 293 239 b 236 158 293 174 265 158 l 194 158 l 194 46 z "},"₄":{"ha":531,"x_min":0,"x_max":0,"o":"m 422 -194 l 422 -65 l 519 -65 l 519 56 l 422 56 l 422 383 l 251 383 l 11 51 l 11 -65 l 282 -65 l 282 -194 z m 153 56 l 282 242 l 282 56 z "},"₅":{"ha":425,"x_min":0,"x_max":0,"o":"m 165 -67 b 26 3 111 -67 60 -36 l -7 -142 b 171 -204 42 -181 104 -204 b 410 15 310 -204 410 -104 b 215 200 410 115 340 200 b 201 199 211 200 207 200 l 213 254 l 390 254 l 390 383 l 104 383 l 43 68 b 146 92 79 83 114 92 b 258 11 214 92 258 58 b 165 -67 258 -36 219 -67 z "},"₆":{"ha":486,"x_min":0,"x_max":0,"o":"m 468 17 b 286 222 468 126 393 211 l 411 383 l 236 383 l 100 206 b 17 15 39 126 17 78 b 243 -204 17 -108 115 -204 b 468 17 372 -204 468 -108 z m 244 100 b 328 15 290 100 328 63 b 244 -68 328 -29 290 -68 b 160 15 196 -68 160 -29 b 244 100 160 63 196 100 z "},"₇":{"ha":499,"x_min":0,"x_max":0,"o":"m 500 383 l 26 383 l 26 254 l 279 254 l 56 -194 l 222 -194 z "},"₈":{"ha":467,"x_min":0,"x_max":0,"o":"m 232 393 b 40 226 131 393 40 326 b 99 107 40 172 68 132 b 10 -28 65 92 10 46 b 232 -204 10 -133 110 -204 b 456 -28 357 -204 456 -133 b 367 107 456 46 400 92 b 426 226 399 132 426 172 b 232 393 426 326 335 393 z m 232 168 b 175 224 199 168 175 190 b 232 279 175 257 199 279 b 290 224 267 279 290 257 b 232 168 290 190 267 168 z m 232 -83 b 165 -18 194 -83 165 -57 b 232 47 165 21 194 47 b 301 -18 272 47 301 21 b 232 -83 301 -57 272 -83 z "},"₉":{"ha":486,"x_min":0,"x_max":0,"o":"m 17 172 b 199 -33 17 63 92 -22 l 75 -193 l 250 -193 l 386 -15 b 469 174 446 64 469 113 b 243 394 469 299 371 394 b 17 172 113 394 17 299 z m 242 90 b 158 174 194 90 158 126 b 242 258 158 218 194 258 b 326 174 290 258 326 218 b 242 90 326 126 290 90 z "},"⁄":{"ha":258,"x_min":0,"x_max":0,"o":"m -269 60 l -153 -18 l 528 988 l 411 1065 z "},"½":{"ha":1243,"x_min":0,"x_max":0,"o":"m 233 60 l 350 -18 l 1031 988 l 914 1065 z m 36 469 l 421 469 l 421 599 l 307 599 l 307 1047 l 99 1047 l 17 918 l 150 918 l 150 599 l 36 599 z m 951 372 b 1010 439 951 404 971 439 b 1060 388 1042 439 1060 417 b 999 268 1060 350 1033 315 l 788 0 l 1233 0 l 1233 129 l 1065 129 l 1115 192 b 1221 404 1165 258 1221 324 b 1013 588 1221 511 1135 588 b 782 372 881 588 794 489 z "},"¼":{"ha":1225,"x_min":0,"x_max":0,"o":"m 233 60 l 350 -18 l 1031 988 l 914 1065 z m 36 469 l 421 469 l 421 599 l 307 599 l 307 1047 l 99 1047 l 17 918 l 150 918 l 150 599 l 36 599 z m 1117 0 l 1117 129 l 1214 129 l 1214 250 l 1117 250 l 1117 578 l 946 578 l 706 246 l 706 129 l 976 129 l 976 0 z m 847 250 l 976 436 l 976 250 z "},"¾":{"ha":1215,"x_min":0,"x_max":0,"o":"m 224 60 l 340 -18 l 1021 988 l 904 1065 z m 238 710 b 311 651 278 710 311 690 b 238 588 311 614 279 588 b 158 667 189 588 160 621 l 7 667 b 238 460 10 543 101 460 b 456 644 369 460 456 542 b 383 771 456 703 428 744 b 438 882 408 792 438 831 b 244 1057 438 986 364 1057 b 31 865 121 1057 40 971 l 178 865 b 239 925 182 900 203 925 b 293 874 274 925 293 903 b 236 822 293 838 265 822 l 194 822 l 194 710 z m 1107 0 l 1107 129 l 1204 129 l 1204 250 l 1107 250 l 1107 578 l 936 578 l 696 246 l 696 129 l 967 129 l 967 0 z m 838 250 l 967 436 l 967 250 z "},"⅓":{"ha":1254,"x_min":0,"x_max":0,"o":"m 233 60 l 350 -18 l 1031 988 l 914 1065 z m 36 469 l 421 469 l 421 599 l 307 599 l 307 1047 l 99 1047 l 17 918 l 150 918 l 150 599 l 36 599 z m 1019 240 b 1093 182 1060 240 1093 221 b 1019 118 1093 144 1061 118 b 940 197 971 118 942 151 l 789 197 b 1019 -10 792 74 883 -10 b 1238 175 1151 -10 1238 72 b 1165 301 1238 233 1210 275 b 1219 413 1190 322 1219 361 b 1026 588 1219 517 1146 588 b 813 396 903 588 822 501 l 960 396 b 1021 456 964 431 985 456 b 1075 404 1056 456 1075 433 b 1018 353 1075 368 1047 353 l 976 353 l 976 240 z "},"⅔":{"ha":1275,"x_min":0,"x_max":0,"o":"m 254 60 l 371 -18 l 1051 988 l 935 1065 z m 169 842 b 228 908 169 874 189 908 b 278 857 260 908 278 886 b 217 738 278 819 251 785 l 6 469 l 451 469 l 451 599 l 283 599 l 333 661 b 439 874 383 728 439 793 b 231 1057 439 981 353 1057 b 0 842 99 1057 13 958 z m 1040 240 b 1114 182 1081 240 1114 221 b 1040 118 1114 144 1082 118 b 961 197 992 118 963 151 l 810 197 b 1040 -10 813 74 904 -10 b 1258 175 1172 -10 1258 72 b 1186 301 1258 233 1231 275 b 1240 413 1211 322 1240 361 b 1047 588 1240 517 1167 588 b 833 396 924 588 843 501 l 981 396 b 1042 456 985 431 1006 456 b 1096 404 1076 456 1096 433 b 1039 353 1096 368 1068 353 l 997 353 l 997 240 z "},"⅛":{"ha":1247,"x_min":0,"x_max":0,"o":"m 233 60 l 350 -18 l 1031 988 l 914 1065 z m 36 469 l 421 469 l 421 599 l 307 599 l 307 1047 l 99 1047 l 17 918 l 150 918 l 150 599 l 36 599 z m 1014 588 b 822 421 913 588 822 521 b 881 301 822 367 850 326 b 792 167 847 286 792 240 b 1014 -10 792 61 892 -10 b 1238 167 1139 -10 1238 61 b 1149 301 1238 240 1182 286 b 1208 421 1181 326 1208 367 b 1014 588 1208 521 1117 588 z m 1014 363 b 957 418 981 363 957 385 b 1014 474 957 451 981 474 b 1072 418 1049 474 1072 451 b 1014 363 1072 385 1049 363 z m 1014 111 b 947 176 976 111 947 138 b 1014 242 947 215 976 242 b 1083 176 1054 242 1083 215 b 1014 111 1083 138 1054 111 z "},"⅜":{"ha":1238,"x_min":0,"x_max":0,"o":"m 224 60 l 340 -18 l 1021 988 l 904 1065 z m 238 710 b 311 651 278 710 311 690 b 238 588 311 614 279 588 b 158 667 189 588 160 621 l 7 667 b 238 460 10 543 101 460 b 456 644 369 460 456 542 b 383 771 456 703 428 744 b 438 882 408 792 438 831 b 244 1057 438 986 364 1057 b 31 865 121 1057 40 971 l 178 865 b 239 925 182 900 203 925 b 293 874 274 925 293 903 b 236 822 293 838 265 822 l 194 822 l 194 710 z m 1004 588 b 813 421 903 588 813 521 b 871 301 813 367 840 326 b 782 167 838 286 782 240 b 1004 -10 782 61 882 -10 b 1228 167 1129 -10 1228 61 b 1139 301 1228 240 1172 286 b 1199 421 1171 326 1199 367 b 1004 588 1199 521 1107 588 z m 1004 363 b 947 418 971 363 947 385 b 1004 474 947 451 971 474 b 1063 418 1039 474 1063 451 b 1004 363 1063 385 1039 363 z m 1004 111 b 938 176 967 111 938 138 b 1004 242 938 215 967 242 b 1074 176 1044 242 1074 215 b 1004 111 1074 138 1044 111 z "},"⅝":{"ha":1190,"x_min":0,"x_max":0,"o":"m 176 60 l 293 -18 l 974 988 l 857 1065 z m 165 597 b 26 667 111 597 60 628 l -7 522 b 171 460 42 483 104 460 b 410 679 310 460 410 560 b 215 864 410 779 340 864 b 201 863 211 864 207 864 l 213 918 l 390 918 l 390 1047 l 104 1047 l 43 732 b 146 756 79 747 114 756 b 258 675 214 756 258 722 b 165 597 258 628 219 597 z m 956 588 b 764 421 854 588 764 521 b 822 301 764 367 792 326 b 733 167 789 286 733 240 b 956 -10 733 61 833 -10 b 1179 167 1081 -10 1179 61 b 1090 301 1179 240 1124 286 b 1150 421 1122 326 1150 367 b 956 588 1150 521 1058 588 z m 956 363 b 899 418 922 363 899 385 b 956 474 899 451 922 474 b 1014 418 990 474 1014 451 b 956 363 1014 385 990 363 z m 956 111 b 889 176 918 111 889 138 b 956 242 889 215 918 242 b 1025 176 996 242 1025 215 b 956 111 1025 138 996 111 z "},"⅞":{"ha":1125,"x_min":0,"x_max":0,"o":"m 111 60 l 228 -18 l 908 988 l 792 1065 z m 500 1047 l 26 1047 l 26 918 l 279 918 l 56 469 l 222 469 z m 892 588 b 700 421 790 588 700 521 b 758 301 700 367 728 326 b 669 167 725 286 669 240 b 892 -10 669 61 769 -10 b 1115 167 1017 -10 1115 61 b 1026 301 1115 240 1060 286 b 1086 421 1058 326 1086 367 b 892 588 1086 521 994 588 z m 892 363 b 835 418 858 363 835 385 b 892 474 835 451 858 474 b 950 418 926 474 950 451 b 892 363 950 385 926 363 z m 892 111 b 825 176 854 111 825 138 b 892 242 825 215 854 242 b 961 176 932 242 961 215 b 892 111 961 138 932 111 z "},"%":{"ha":1074,"x_min":0,"x_max":0,"o":"m 493 831 b 260 1064 493 961 389 1064 b 28 831 132 1064 28 961 b 260 597 28 700 132 597 b 493 831 389 597 493 700 z m 100 75 l 226 -17 l 974 972 l 847 1064 z m 260 922 b 350 831 310 922 350 882 b 260 739 350 779 310 739 b 171 831 210 739 171 779 b 260 922 171 882 210 922 z m 581 217 b 813 -17 581 86 685 -17 b 1046 217 942 -17 1046 86 b 813 450 1046 347 942 450 b 581 217 685 450 581 347 z m 903 217 b 813 125 903 165 863 125 b 724 217 763 125 724 165 b 813 308 724 268 763 308 b 903 217 863 308 903 268 z "},"+":{"ha":833,"x_min":0,"x_max":0,"o":"m 786 407 l 786 575 l 499 575 l 499 861 l 333 861 l 333 575 l 46 575 l 46 407 l 333 407 l 333 121 l 499 121 l 499 407 z "},"−":{"ha":833,"x_min":0,"x_max":0,"o":"m 46 407 l 786 407 l 786 575 l 46 575 z "},"×":{"ha":833,"x_min":0,"x_max":0,"o":"m 300 490 l 74 264 l 192 146 l 417 372 l 642 146 l 760 265 l 535 490 l 760 717 l 642 833 l 417 608 l 192 833 l 74 717 z "},"÷":{"ha":833,"x_min":0,"x_max":0,"o":"m 417 671 b 542 793 485 671 542 724 b 417 917 542 863 485 917 b 293 793 349 917 293 863 b 417 671 293 724 349 671 z m 46 407 l 788 407 l 788 575 l 46 575 z m 417 65 b 542 188 485 65 542 119 b 417 311 542 257 485 311 b 293 188 349 311 293 257 b 417 65 293 119 349 65 z "},"=":{"ha":833,"x_min":0,"x_max":0,"o":"m 51 569 l 781 569 l 781 724 l 51 724 z m 51 261 l 781 261 l 781 414 l 51 414 z "},"<":{"ha":833,"x_min":0,"x_max":0,"o":"m 78 372 l 756 68 l 756 268 l 239 488 l 756 708 l 756 910 l 78 606 z "},">":{"ha":833,"x_min":0,"x_max":0,"o":"m 760 372 l 760 606 l 82 910 l 82 708 l 599 488 l 82 268 l 82 68 z "},"ﬀ":{"ha":949,"x_min":0,"x_max":0,"o":"m 575 0 l 786 0 l 786 515 l 940 515 l 940 697 l 786 697 l 786 854 b 883 950 786 918 826 950 b 950 936 908 950 928 946 l 950 1117 b 844 1133 924 1128 889 1133 b 663 1061 771 1133 710 1111 b 457 1136 606 1113 536 1136 b 128 822 265 1136 128 1003 l 128 697 l 26 697 l 26 515 l 128 515 l 128 0 l 339 0 l 339 515 l 575 515 z m 339 697 l 339 815 b 457 951 339 897 383 951 b 575 815 531 951 575 897 l 575 697 z "},"ﬁ":{"ha":868,"x_min":0,"x_max":0,"o":"m 786 822 b 457 1136 786 1003 649 1136 b 128 822 265 1136 128 1003 l 128 697 l 26 697 l 26 515 l 128 515 l 128 0 l 339 0 l 339 515 l 483 515 l 483 697 l 339 697 l 339 815 b 457 951 339 897 383 951 b 575 815 531 951 575 897 l 575 800 l 786 800 z m 575 697 l 575 0 l 786 0 l 786 697 z "},"ﬃ":{"ha":1317,"x_min":0,"x_max":0,"o":"m 1235 822 b 906 1136 1235 1003 1097 1136 b 679 1054 815 1136 738 1107 b 457 1136 622 1108 544 1136 b 128 822 265 1136 128 1003 l 128 697 l 26 697 l 26 515 l 128 515 l 128 0 l 339 0 l 339 515 l 575 515 l 575 0 l 786 0 l 786 515 l 931 515 l 931 697 l 786 697 l 786 815 b 906 951 786 897 832 951 b 1024 815 978 951 1024 897 l 1024 800 l 1235 800 z m 339 697 l 339 815 b 457 951 339 897 383 951 b 575 815 531 951 575 897 l 575 697 z m 1024 697 l 1024 0 l 1235 0 l 1235 697 z "},"ﬂ":{"ha":868,"x_min":0,"x_max":0,"o":"m 786 822 b 457 1136 786 1003 649 1136 b 128 822 265 1136 128 1003 l 128 697 l 26 697 l 26 515 l 128 515 l 128 0 l 339 0 l 339 515 l 483 515 l 483 697 l 339 697 l 339 815 b 457 951 339 897 383 951 b 575 815 531 951 575 897 l 575 0 l 786 0 z "},"ﬄ":{"ha":1317,"x_min":0,"x_max":0,"o":"m 1235 822 b 906 1136 1235 1003 1097 1136 b 679 1054 815 1136 738 1107 b 457 1136 622 1108 544 1136 b 128 822 265 1136 128 1003 l 128 697 l 26 697 l 26 515 l 128 515 l 128 0 l 339 0 l 339 515 l 575 515 l 575 0 l 786 0 l 786 515 l 931 515 l 931 697 l 786 697 l 786 815 b 906 951 786 897 832 951 b 1024 815 978 951 1024 897 l 1024 0 l 1235 0 z m 339 697 l 339 815 b 457 951 339 897 383 951 b 575 815 531 951 575 897 l 575 697 z "},"̀":{"ha":0,"x_min":0,"x_max":0,"o":"m 179 853 l -24 1135 l -179 990 l 90 771 z "},"́":{"ha":0,"x_min":0,"x_max":0,"o":"m -179 853 l -90 771 l 179 990 l 24 1135 z "},"̂":{"ha":0,"x_min":0,"x_max":0,"o":"m -1 1133 l -261 861 l -162 779 l -1 914 l 160 779 l 260 861 z "},"̃":{"ha":0,"x_min":0,"x_max":0,"o":"m -97 1056 b -256 832 -197 1056 -253 954 l -125 825 b -72 894 -122 869 -103 894 b 97 822 -19 894 19 822 b 256 1046 197 822 253 925 l 125 1054 b 74 985 124 1010 103 985 b -97 1056 22 985 -18 1056 z "},"̄":{"ha":0,"x_min":0,"x_max":0,"o":"m -228 861 l 226 861 l 226 1025 l -228 1025 z "},"̆":{"ha":0,"x_min":0,"x_max":0,"o":"m 0 807 b 257 1060 138 807 249 914 l 104 1082 b 0 964 96 1006 51 964 b -103 1082 -51 964 -94 1006 l -257 1060 b 0 807 -247 914 -136 807 z "},"̇":{"ha":0,"x_min":0,"x_max":0,"o":"m 0 840 b 126 965 69 840 126 896 b 0 1090 126 1035 69 1090 b -125 965 -68 1090 -125 1035 b 0 840 -125 896 -68 840 z "},"̈":{"ha":0,"x_min":0,"x_max":0,"o":"m 160 840 b 282 963 228 840 282 894 b 160 1083 282 1029 228 1083 b 40 963 96 1083 40 1029 b 160 840 40 894 96 840 z m -160 840 b -39 963 -94 840 -39 894 b -160 1083 -39 1029 -94 1083 b -282 963 -226 1083 -282 1029 b -160 840 -282 894 -226 840 z "},"̊":{"ha":0,"x_min":0,"x_max":0,"o":"m 193 975 b 0 1161 193 1079 108 1161 b -192 975 -107 1161 -192 1079 b 0 789 -192 872 -107 789 b 193 975 108 789 193 872 z m -74 975 b 0 1050 -74 1018 -42 1050 b 75 975 43 1050 75 1018 b 0 901 75 933 43 901 b -74 975 -42 901 -74 933 z "},"̋":{"ha":0,"x_min":0,"x_max":0,"o":"m -297 847 l -193 786 l 10 1018 l -160 1124 z m -11 847 l 93 786 l 296 1018 l 126 1124 z "},"̌":{"ha":0,"x_min":0,"x_max":0,"o":"m -1 779 l 260 1051 l 160 1133 l -1 999 l -162 1133 l -261 1051 z "},"̒":{"ha":0,"x_min":0,"x_max":0,"o":"m 153 1049 l 50 1117 l -153 906 l 14 799 z "},"̦":{"ha":0,"x_min":0,"x_max":0,"o":"m -153 -297 l -50 -365 l 153 -154 l -14 -47 z "},"̧":{"ha":0,"x_min":0,"x_max":0,"o":"m -153 -297 l -50 -365 l 153 -154 l -14 -47 z "},"̨":{"ha":0,"x_min":0,"x_max":0,"o":"m -39 15 b -178 -211 -124 -58 -178 -129 b -6 -364 -178 -311 -97 -364 b 179 -276 67 -364 132 -333 l 106 -165 b 32 -211 82 -194 58 -211 b -17 -162 4 -211 -17 -193 b 113 0 -17 -122 19 -78 z "}}}
